<svg width="121" height="50" viewBox="0 0 121 50" fill="none" xmlns="http://www.w3.org/2000/svg">
<g clip-path="url(#clip0_721_4809)">
<path fill-rule="evenodd" clip-rule="evenodd" d="M93.7271 13.7288C98.2471 9.24684 95.2113 0 87.4618 0H61.7304V5.81688L59.3957 7.03483V0H33.6642C25.9147 0 22.8789 9.26593 27.399 13.7485C20.9239 17.7489 22.4877 29.0501 31.9754 29.0609H59.3957V23.3559L61.7304 22.138V29.0609H89.1506C98.6377 29.0501 100.201 17.7489 93.7271 13.7485V13.7288ZM67.8155 12.7576L68.8051 12.2411L67.3658 9.52732L65.7046 10.3942V7.20909L68.8051 5.59174L67.5371 3.20227H87.4618C93.3724 3.15012 93.4725 12.8097 87.4618 12.7576H67.8155ZM65.7046 3.20227H66.7443L65.7046 3.74478V3.20227ZM55.4215 25.7918H54.3818L55.4215 25.2487V25.7918ZM61.7304 9.28246V12.4669L59.3957 13.6849V10.4998L61.7304 9.28246ZM55.4215 3.20227V9.10883L51.9842 10.9024L52.9687 12.7576H33.6642C27.6536 12.8097 27.753 3.15012 33.6642 3.20227H55.4215ZM53.7667 16.6219L51.9848 17.5518L53.4248 20.2656L55.4221 19.2232V21.965L51.9848 23.7579L53.0727 25.8084H32.3731C26.3624 25.8586 26.4619 16.5717 32.3731 16.6219H53.7667ZM59.3957 19.891V17.1492L61.7304 15.9312V18.673L59.3957 19.891ZM65.7046 25.8084V20.0646L68.8051 18.4473L67.8366 16.6219H88.7536C94.6642 16.5717 94.7643 25.8586 88.7536 25.8084H65.7046ZM0.620117 49.8798H6.83409C11.0924 49.8957 11.2387 45.0551 8.61978 44.4114C11.0424 43.1992 10.8493 38.9622 6.26324 38.9622H0.620117V49.8798ZM6.91299 43.7207L2.35962 43.7144L2.36219 40.4377H6.91299C8.76858 40.4116 8.79039 43.7455 6.91299 43.7207ZM6.79176 48.41H2.3609L2.36283 44.87H6.79112C9.5062 44.8636 9.52993 48.4437 6.79176 48.41ZM16.3699 45.7579C16.1429 45.7515 15.9748 45.5543 16.0627 45.3279L18.1114 40.937C18.2351 40.7144 18.5956 40.7169 18.695 40.9395L20.754 45.3082C20.7769 45.3548 20.7874 45.4064 20.7843 45.4581C20.7813 45.5098 20.7649 45.5599 20.7366 45.6035C20.7084 45.6471 20.6693 45.6827 20.6231 45.707C20.577 45.7312 20.5253 45.7433 20.473 45.742L16.3699 45.7579ZM21.8918 47.2188L23.233 49.897H24.9469L19.3025 38.9431H17.5886L11.9442 49.897H13.658L14.9992 47.2188H21.8918ZM84.6236 45.7579C84.3959 45.7515 84.2278 45.5543 84.3157 45.3279L86.365 40.937C86.4888 40.7144 86.8486 40.7169 86.9474 40.9395L89.007 45.3082C89.0299 45.3548 89.0404 45.4064 89.0374 45.4581C89.0343 45.5098 89.0179 45.5599 88.9896 45.6035C88.9614 45.6471 88.9223 45.6827 88.8761 45.707C88.83 45.7312 88.7783 45.7433 88.726 45.742L84.6236 45.7579ZM90.1442 47.2188L91.486 49.897H93.1999L87.5548 38.9431H85.841L80.1972 49.897H81.9111L83.2516 47.2188H90.1442ZM112.044 45.7579C111.816 45.7515 111.648 45.5543 111.736 45.3279L113.785 40.937C113.909 40.7144 114.269 40.7169 114.368 40.9395L116.427 45.3082C116.45 45.3548 116.461 45.4064 116.458 45.4581C116.455 45.5098 116.438 45.5599 116.41 45.6035C116.382 45.6471 116.343 45.6827 116.296 45.707C116.25 45.7312 116.199 45.7433 116.146 45.742L112.044 45.7579ZM117.564 47.2188L118.906 49.897H120.62L114.975 38.9431H113.261L107.617 49.897H109.331L110.672 47.2188H117.564ZM27.4054 38.9431V49.8785H35.4339V48.548H29.0262V38.9431H27.4054ZM76.3417 38.9431V49.8785H77.9613V38.9431H76.3417ZM38.1355 38.9622V49.8785H46.2885V48.4189H39.5877V44.8535H45.8658V43.6896H39.6069V40.4014H46.1191V38.9622H38.1355ZM48.8464 49.8785V38.9431H51.2119L58.4021 48.4189V38.9431H59.8556V49.8785H57.5266L50.3178 40.4205V49.8785H48.8464ZM94.2107 44.1144C94.2094 40.0275 96.7892 38.2651 100.633 38.2651C105.568 38.2651 105.755 41.1405 105.755 41.4553H104.004C104.004 40.6431 102.924 39.6815 100.706 39.6828C98.0226 39.684 95.9194 40.9993 95.9194 44.1151C95.9194 46.4428 97.7321 48.5251 100.706 48.5251C102.252 48.5251 103.613 48.3833 104.321 48.0519V45.0023H100.726V43.8384H105.736V49.0981C104.693 49.5414 102.961 49.9987 100.706 50C96.6346 50.0013 94.2107 47.7664 94.2107 44.1144ZM64.4756 44.1208C64.4756 46.6762 66.4287 48.2535 68.6012 48.2535C70.9616 48.2535 71.9108 46.5217 71.8987 46.5033H73.6497C73.6311 46.5408 73.2591 49.7354 68.5826 49.7354C65.5346 49.7354 62.8375 47.975 62.8375 44.1208C62.8375 40.7595 64.6905 37.9522 68.5826 37.9522C73.091 37.9522 73.6311 41.1468 73.6497 41.1844H71.8987C71.9115 41.1659 70.9616 39.4341 68.6012 39.4341C65.931 39.4341 64.4852 41.4922 64.4756 44.1208Z" fill="#86553B"/>
</g>
<defs>
<clipPath id="clip0_721_4809">
<rect width="120" height="50" fill="white" transform="translate(0.620117)"/>
</clipPath>
</defs>
</svg>
