<svg width="308" height="40" viewBox="0 0 308 40" fill="none" xmlns="http://www.w3.org/2000/svg">
<g clip-path="url(#clip0_721_4812)">
<path fill-rule="evenodd" clip-rule="evenodd" d="M69.5571 8.98338L70.8101 16.4215H70.1144C69.14 11.7892 64.9673 9.82496 60.5159 9.82496C59.8201 9.82496 59.1244 9.82496 58.15 10.1061V22.8783H59.8202C63.4356 22.8783 65.6613 21.4728 65.6613 18.5272H66.357V28.9127H65.7997C65.5211 26.6672 64.6869 23.8614 59.9586 23.8614H58.15V35.6506C58.15 37.6149 58.9842 38.7376 61.9056 38.7376V39.4413H49.5242V38.7376C52.3071 38.7376 53.2815 37.6149 53.2815 35.6506V12.7723C53.2815 10.9477 52.1687 9.68352 49.3857 9.68352V8.98338H69.5571ZM94.5987 8.98338L95.85 16.4215H95.1542C94.1798 11.7892 90.0054 9.82496 85.554 9.82496C84.86 9.82496 84.1625 9.82496 83.1899 10.1061V22.8783H84.86C88.4754 22.8783 90.7029 21.4728 90.7029 18.5272H91.3969V28.9127H90.8413C90.5627 26.6672 89.7285 23.8614 84.9985 23.8614H83.1899V35.6506C83.1899 37.6149 84.0241 38.7376 86.9455 38.7376V39.4413H74.564V38.7376C77.3452 38.7376 78.3196 37.6149 78.3196 35.6506V12.7723C78.3196 10.9477 77.2068 9.68352 74.4238 9.68352V8.98338H94.5987ZM43.4044 8.98338V9.68352C41.3189 9.68352 40.0659 10.8062 40.0659 12.7723V35.6471C40.0659 37.7528 41.4574 38.7341 43.4044 38.7341V39.4378H31.7187V38.7341C33.8059 38.5962 35.0572 37.7528 35.0572 35.6471V12.7723C35.0572 10.808 33.8059 9.68352 31.7187 9.68352V8.98338H43.4044ZM28.2399 0.701902L29.4912 9.82496H28.9357C27.1271 5.05304 23.927 1.82461 17.667 1.82461V34.1036C17.667 37.6114 19.6141 38.7341 21.7013 38.7341V39.4378H7.7899V38.7341C9.7387 38.7341 12.1028 37.6114 12.1028 34.1036V1.82461C5.70267 1.82461 2.78298 4.77192 0.557298 9.82496H0L0.974396 0.701902H28.2399ZM199.351 29.4731C199.351 34.245 202.692 37.7546 207.56 37.7546C209.647 37.7546 212.15 36.7698 213.82 34.6676L204.081 22.035C201.716 22.8784 199.351 25.4031 199.351 29.4731ZM212.707 10.6665C212.697 6.76626 211.023 4.77192 207.7 4.77192C204.36 4.77192 202.411 6.73798 202.411 9.96464C202.411 13.6139 207.282 18.6669 207.282 18.6669C211.177 16.4215 212.707 14.1761 212.707 10.6665ZM207.977 19.5085L216.326 30.0371C216.326 30.0371 217.159 28.3522 217.299 26.6673C217.299 24.703 216.326 24.0011 214.656 23.7217V23.1595H223.699C223.699 23.1595 223.836 23.7217 223.699 23.7217C222.029 24.0011 220.776 24.5615 219.523 25.5445C218.55 26.8087 217.993 27.9314 216.88 30.739L220.776 35.511C222.446 37.4752 224.672 38.5979 227.036 38.7358V39.4395H217.297V38.7358L214.514 35.3695C212.148 37.7564 208.394 39.8621 204.639 39.8621C198.656 39.8621 194.76 36.4922 194.76 31.8617C194.76 26.8105 199.49 23.5803 203.245 21.0537C203.245 21.0537 199.209 16.4233 199.209 12.2136C199.209 7.44342 202.827 3.79243 207.835 3.79243C212.288 3.79243 215.765 7.02086 215.765 10.9512C215.767 15.4385 210.62 17.4045 207.977 19.5085ZM268.63 0L269.047 12.21H268.353C267.1 5.33239 262.65 1.40382 256.944 1.40382C250.129 1.40382 245.399 9.40417 245.399 20.0707C245.399 33.4035 250.684 38.8773 257.92 38.8773C265.43 38.8773 268.353 31.86 269.049 26.8087H269.743V32.1411C268.493 34.3883 264.736 39.5792 256.807 39.5792C246.788 39.5792 238.998 31.2977 238.998 20.2122C238.998 10.1078 247.764 0.843347 256.807 0.843347C262.093 0.843347 263.483 3.09053 265.57 3.09053C267.1 3.09053 267.796 2.1075 267.936 0.00176706L268.63 0ZM305.217 33.8242C306.747 33.8242 308 35.0884 308 36.6319C308 38.1754 306.747 39.2981 305.217 39.2981C303.687 39.2981 302.434 38.1754 302.434 36.6319C302.434 35.0884 303.687 33.8242 305.217 33.8242ZM277.813 23.7199C277.813 33.1223 281.427 38.8755 287.133 38.8755C292.976 38.8755 296.589 33.5431 296.589 23.7199C296.589 14.7366 293.393 9.68351 287.27 9.54384C281.011 9.40416 277.813 15.4385 277.813 23.7199ZM286.994 8.84194C295.603 8.85962 302.853 15.4508 302.853 24.2786C302.853 32.8395 296.037 39.4378 287.271 39.4378C278.645 39.4378 271.413 32.5583 271.413 24.2786C271.413 16.0007 278.509 8.84194 286.994 8.84194ZM106.423 15.4385L111.57 27.9296H101.414L106.423 15.4385ZM123.116 38.7358C122.003 38.7358 121.168 37.7546 120.611 37.0545C120.194 36.3508 108.508 7.43989 108.508 7.43989L97.797 33.8242C96.5457 37.1906 94.8756 38.7341 92.5115 38.7341V39.4378H101.274V38.7341C99.4672 38.5962 98.3526 37.7528 98.3526 36.4887C98.3526 35.5074 101.134 28.7712 101.134 28.7712H111.707C111.707 28.7712 114.628 35.0866 114.767 36.4887C114.907 37.6114 113.237 38.7341 111.566 38.7341V39.4378H123.112V38.7358H123.116ZM127.986 34.1036C127.986 36.9112 126.177 38.1754 124.23 38.7341V39.4378H132.994V38.7341C130.49 38.1754 129.099 36.4887 129.099 34.1036V14.3175L149.549 40V15.3006C149.549 11.791 151.496 9.68528 153.721 9.68528V8.98515H143.844V9.5456C146.627 10.389 148.574 12.0721 148.574 15.3006V30.4597L131.601 8.98515H123.533V9.5456C127.01 9.68528 127.984 12.6326 127.984 13.3345L127.986 34.1036ZM154.834 9.68352C156.073 9.68352 156.369 9.69235 157.339 11.5081C157.339 11.5081 166.658 26.5276 166.658 26.6655V35.6471C166.658 37.6114 164.988 38.7341 162.486 38.8755V39.4378H175.424V38.8755C173.059 38.7341 171.529 37.6114 171.529 35.6471V25.122C171.529 25.122 177.508 14.3158 178.065 13.3327C179.455 11.0873 181.402 9.68352 183.768 9.40241V8.98162H173.195L173.335 9.40241C176.672 9.40241 177.508 12.6308 176.255 14.5951L170.829 24.6994L164.154 12.912C163.038 11.0873 164.431 9.40241 166.934 9.40241V8.98162H154.831V9.68352H154.834Z" fill="black"/>
</g>
<defs>
<clipPath id="clip0_721_4812">
<rect width="308" height="40" fill="white"/>
</clipPath>
</defs>
</svg>
