<svg width="17" height="18" viewBox="0 0 17 18" fill="none" xmlns="http://www.w3.org/2000/svg">
<g clip-path="url(#clip0_739_4809)">
<path d="M17 4.75006C16.9945 4.67973 16.9802 4.61037 16.9573 4.54364V4.49506C16.9495 4.4711 16.9377 4.4486 16.9226 4.42845L14.8566 1.3258C14.6895 1.06973 14.4605 0.859871 14.1909 0.715565C13.9213 0.571259 13.6196 0.497154 13.3139 0.500084H3.68301C3.38248 0.499941 3.08657 0.574154 2.82169 0.716108C2.55681 0.858061 2.33117 1.06334 2.1649 1.31365L0.101323 4.41596C0.0863392 4.43634 0.0746321 4.45893 0.066623 4.48292V4.53149C0.0342896 4.60087 0.0118629 4.67444 0 4.75006V6.57148C0 6.89353 0.127954 7.20239 0.355714 7.43011C0.583474 7.65783 0.892386 7.78576 1.21448 7.78576V15.6786C1.21439 16.1612 1.40591 16.6241 1.74697 16.9656C2.08803 17.3071 2.55074 17.4994 3.03343 17.5H13.9638C14.4469 17.4999 14.9102 17.308 15.2518 16.9664C15.5934 16.6249 15.7854 16.1616 15.7855 15.6786V7.78576C16.1076 7.78576 16.4165 7.65783 16.6443 7.43011C16.8721 7.20239 17 6.89353 17 6.57148V4.75006ZM3.17917 1.98775C3.23413 1.90413 3.30893 1.83541 3.3969 1.7877C3.48487 1.74 3.58328 1.71481 3.68335 1.71436H13.3142C13.4143 1.7148 13.5126 1.74 13.6005 1.7877C13.6884 1.83541 13.7632 1.90414 13.8181 1.98775L15.2574 4.14292H1.74018L3.17917 1.98775ZM6.67688 16.2857V12.6428C6.67688 12.1598 6.86882 11.6965 7.21044 11.355C7.55206 11.0133 8.01545 10.8214 8.49862 10.8214C8.98178 10.8214 9.4451 11.0133 9.78679 11.355C10.1284 11.6965 10.3203 12.1598 10.3203 12.6428V16.2857H6.67688ZM14.571 15.6782C14.5712 15.758 14.5556 15.8371 14.5251 15.9108C14.4946 15.9845 14.4499 16.0515 14.3935 16.108C14.3371 16.1644 14.2701 16.2091 14.1964 16.2397C14.1226 16.2701 14.0436 16.2858 13.9638 16.2857H11.5348V12.6428C11.5348 11.8378 11.215 11.0656 10.6455 10.4963C10.0761 9.92704 9.30384 9.60716 8.49862 9.60716C7.69332 9.60716 6.92109 9.92704 6.35168 10.4963C5.78228 11.0656 5.4624 11.8378 5.4624 12.6428V16.2857H3.03343C2.95366 16.2858 2.87466 16.2701 2.80095 16.2397C2.72723 16.2092 2.66025 16.1645 2.60384 16.1081C2.54744 16.0517 2.50271 15.9847 2.47223 15.911C2.44174 15.8373 2.4261 15.7584 2.42619 15.6786V7.78576H14.571V15.6782ZM15.1783 6.57148H1.2117V5.3572H15.7855V6.57148H15.1783Z" fill="black"/>
</g>
<defs>
<clipPath id="clip0_739_4809">
<rect width="17" height="17" fill="white" transform="translate(0 0.5)"/>
</clipPath>
</defs>
</svg>
