<svg width="263" height="40" viewBox="0 0 263 40" fill="none" xmlns="http://www.w3.org/2000/svg">
<g clip-path="url(#clip0_721_4811)">
<g clip-path="url(#clip1_721_4811)">
<path d="M223.056 38.8537V31.4258H201.162V22.8551H218.677V15.4272H201.162V8.57066H221.304V0.857067H193.28V38.8537H223.056ZM234.149 0.857067V38.8537H262.465V31.4258H242.03V0.857067H234.149ZM49.0735 0.857067V38.8537H56.9552V22.8551H75.346V38.8537H82.937V0.857067H75.346V15.4272H56.9552V0.857067H49.0735ZM127.599 38.8537H136.065L118.258 0.857067H108.041L90.5256 38.8537H98.7005L102.786 30.283H123.513L127.599 38.8537ZM143.656 0.857067V38.8537H151.537V11.4276L172.554 38.8537H178.685V0.857067H170.803V23.7122L153.289 0.857067H143.656ZM32.1423 25.9977C31.0853 27.982 29.4919 29.6442 27.5358 30.8029C25.5797 31.9616 23.336 32.5723 21.0494 32.5685C13.9802 32.5626 8.27565 26.9809 8.20511 19.9982C8.27565 13.2095 13.9802 7.6267 21.0494 7.7136C25.8527 7.6267 30.0612 10.2658 32.1423 14.2844L39.1483 10.5705C35.5577 4.29367 28.7938 0.0511859 21.0494 0C9.70604 0.0511859 0.536208 9.02538 0.615269 19.9982C0.534992 31.1651 9.70483 40.1381 21.0494 39.9964C28.8144 40.1381 35.5942 35.873 39.1483 29.7116L32.1423 25.9977Z" fill="black"/>
<path d="M120.301 22.5695H106.289L113.296 7.42798L120.301 22.5695Z" fill="white"/>
</g>
</g>
<defs>
<clipPath id="clip0_721_4811">
<rect width="262" height="40" fill="white" transform="translate(0.540039)"/>
</clipPath>
<clipPath id="clip1_721_4811">
<rect width="262" height="40" fill="white" transform="translate(0.540039)"/>
</clipPath>
</defs>
</svg>
