<svg width="168" height="36" viewBox="0 0 168 36" fill="none" xmlns="http://www.w3.org/2000/svg">
<g clip-path="url(#clip0_721_4807)">
<path d="M151.981 10.5482L151.668 10.6507C150.448 8.04677 148.707 5.97395 146.442 4.4322C144.213 2.89042 141.409 2.11953 138.03 2.11953C136.149 2.11953 134.355 2.51351 132.648 3.30149C130.941 4.0553 129.443 5.13454 128.154 6.53922C126.9 7.90967 125.89 9.57135 125.123 11.5243C124.357 13.4772 123.974 15.6357 123.974 17.9997C123.974 20.3637 124.357 22.5222 125.123 24.4751C125.89 26.428 126.9 28.1068 128.154 29.5115C129.443 30.8819 130.941 31.9441 132.648 32.6979C134.355 33.4515 136.149 33.8284 138.03 33.8284C141.374 33.8284 144.091 33.3145 146.181 32.2866C148.306 31.2246 150.1 29.6143 151.563 27.4559L151.877 27.5583L151.772 30.8474C150.971 31.6697 150.048 32.4063 149.003 33.0572C147.958 33.6739 146.826 34.205 145.607 34.6504C144.422 35.0615 143.186 35.3699 141.897 35.5754C140.608 35.8155 139.319 35.9355 138.03 35.9355C135.348 35.9355 132.788 35.5072 130.349 34.6507C127.911 33.7941 125.768 32.5949 123.922 31.0532C122.076 29.4772 120.613 27.5928 119.533 25.4001C118.453 23.1731 117.913 20.7063 117.913 17.9996C117.913 15.293 118.453 12.8433 119.533 10.6506C120.613 8.42357 122.076 6.52206 123.922 4.94607C125.768 3.37003 127.911 2.17087 130.349 1.3486C132.788 0.492045 135.348 0.063765 138.03 0.063765C139.319 0.063765 140.608 0.166549 141.897 0.372116C143.186 0.577683 144.422 0.903179 145.607 1.3486C146.826 1.75974 147.958 2.2908 149.003 2.94179C150.048 3.5585 150.971 4.27798 151.772 5.10025L151.981 10.5482ZM36.838 20.3642C36.455 20.5353 36.0892 20.7581 35.7407 21.0326C35.3921 21.3065 35.2179 21.6834 35.2179 22.1633V28.4844C33.5458 30.8485 31.4035 32.6815 28.7908 33.9834C26.1783 35.2854 23.287 35.9363 20.117 35.9363C17.4347 35.9363 14.8744 35.5081 12.436 34.6515C9.99755 33.795 7.85521 32.5958 6.00895 31.0541C4.16272 29.4781 2.69966 27.5937 1.61976 25.401C0.539919 23.174 0 20.7072 0 18.0005C0 15.2938 0.539919 12.8441 1.61976 10.6514C2.69966 8.42441 4.16272 6.5229 6.00895 4.94692C7.85521 3.37087 9.99755 2.17173 12.436 1.34949C14.8744 0.492902 17.4347 0.0646076 20.117 0.0646076C21.4059 0.0646076 22.6948 0.167391 23.9837 0.372958C25.2725 0.578525 26.5092 0.904022 27.6936 1.34945C28.9128 1.76058 30.0449 2.29164 31.0899 2.94264C32.135 3.55934 33.0581 4.27882 33.8594 5.10109L34.0687 10.5486L33.7552 10.651C32.536 8.04714 30.7942 5.97431 28.53 4.43255C26.3006 2.89077 23.4963 2.11988 20.1174 2.11988C18.2363 2.11988 16.4423 2.51388 14.7355 3.30189C13.0286 4.05567 11.5307 5.13489 10.2417 6.53957C8.98767 7.91005 7.97749 9.57175 7.21119 11.5247C6.44477 13.4776 6.06156 15.636 6.06156 18.0001C6.06156 20.3298 6.42734 22.4711 7.15889 24.424C7.92528 26.3769 8.9355 28.0558 10.1895 29.4605C11.4784 30.8309 12.9763 31.9102 14.6832 32.6982C16.3901 33.4519 18.2015 33.8288 20.1174 33.8288C23.7402 33.8288 26.8405 33.1436 29.4183 31.7732V22.1628C29.4183 21.6834 29.2268 21.3065 28.8438 21.0321C28.4953 20.7583 28.1469 20.5355 27.7987 20.3637L27.8465 20.1071C28.0204 20.1384 28.334 20.1726 28.7871 20.2095C29.2401 20.2409 29.7104 20.275 30.1979 20.312H34.6918C35.1098 20.2806 35.5104 20.2465 35.8936 20.2095C36.2766 20.1782 36.5726 20.144 36.7816 20.1071L36.838 20.3642ZM74.6847 1.14348C74.3362 1.31458 73.9878 1.53738 73.6397 1.81188C73.2912 2.08577 73.0997 2.59968 73.0653 3.35364C73.0334 4.17591 72.9987 5.22089 72.9611 6.48858C72.9611 7.72201 72.9452 9.12671 72.9133 10.7027C72.9133 12.2787 72.8974 13.9918 72.8655 15.8419V21.5979C72.8337 23.8248 72.5549 25.7264 72.0292 27.3024C71.5066 28.8784 70.8099 30.1974 69.9391 31.2596C69.1031 32.3217 68.1626 33.1611 67.1175 33.7778C66.1073 34.3945 65.0971 34.857 64.0869 35.1654C63.1115 35.5082 62.1884 35.7138 61.3176 35.7821C60.4467 35.8849 59.7674 35.9363 59.2797 35.9363C57.2941 35.9363 55.3782 35.6793 53.5319 35.1654C51.6857 34.6859 50.0659 33.8979 48.6725 32.8013C47.2791 31.7049 46.1644 30.2831 45.3285 28.5358C44.4924 26.7885 44.0744 24.6643 44.0744 22.1632V16.3559V11.011C44.0744 9.36645 44.0584 7.89322 44.0266 6.59132C44.0266 5.2551 44.0106 4.17586 43.9788 3.35359C43.9469 2.59982 43.7554 2.0859 43.4043 1.81184C43.0558 1.53796 42.7074 1.31516 42.3593 1.14344L42.4071 0.886787C42.5811 0.918122 42.8599 0.952265 43.2435 0.989216C43.6615 1.02055 44.0795 1.05469 44.4975 1.09165C44.9506 1.09165 45.386 1.10731 45.8039 1.13865H47.6849C48.1029 1.10731 48.5383 1.09165 48.9912 1.09165C49.4442 1.06031 49.8622 1.02617 50.2452 0.989216C50.6632 0.957882 50.9592 0.923739 51.1332 0.886787L51.181 1.14344C50.798 1.31453 50.4322 1.53734 50.0837 1.81184C49.7702 2.08572 49.5959 2.59964 49.5608 3.35359C49.529 4.17586 49.4943 5.2551 49.4567 6.59132V22.1631C49.4567 25.8976 50.345 28.6557 52.1215 30.4372C53.8981 32.2188 56.5281 33.1096 60.0116 33.1096C61.0218 33.1096 62.1713 32.9896 63.4603 32.7496C64.7492 32.4757 65.951 31.9275 67.0656 31.105C68.2152 30.2828 69.1731 29.1179 69.9395 27.6104C70.7407 26.1029 71.1413 24.0986 71.1413 21.5975C71.1413 18.8909 71.1254 16.5782 71.0935 14.6596C71.0935 12.7067 71.0776 11.045 71.0457 9.67456C71.0457 8.26985 71.0298 7.0707 70.9979 6.07709C70.9661 5.08355 70.9313 4.17563 70.8937 3.35333C70.8618 2.59955 70.6704 2.08563 70.3193 1.81157C69.9707 1.53769 69.6224 1.31488 69.2742 1.14313L69.3221 0.886521C69.705 0.954807 70.1404 1.02343 70.6283 1.0924C71.1158 1.12373 71.5686 1.1394 71.9869 1.1394C72.3699 1.1394 72.8053 1.12373 73.2931 1.0924C73.8157 1.02411 74.2685 0.955487 74.6518 0.886521L74.6847 1.14348ZM112.601 10.5482L112.287 10.6507C111.068 8.04677 109.326 5.97395 107.062 4.4322C104.832 2.89042 102.028 2.11953 98.6493 2.11953C96.7682 2.11953 94.9742 2.51351 93.2672 3.30149C91.5603 4.0553 90.0624 5.13454 88.7736 6.53922C87.5195 7.90967 86.5093 9.57135 85.7429 11.5243C84.9766 13.4772 84.5934 15.6357 84.5934 17.9997C84.5934 20.3637 84.9766 22.5221 85.743 24.4751C86.5094 26.428 87.5196 28.1068 88.7736 29.5115C90.0625 30.8819 91.5604 31.9441 93.2673 32.6979C94.9742 33.4515 96.7682 33.8284 98.6493 33.8284C101.993 33.8284 104.711 33.3145 106.801 32.2866C108.925 31.2246 110.719 29.6143 112.183 27.4559L112.496 27.5583L112.392 30.8474C111.591 31.6696 110.667 32.4062 109.622 33.0572C108.577 33.6739 107.445 34.2049 106.226 34.6503C105.042 35.0615 103.805 35.3698 102.516 35.5754C101.227 35.8154 99.9384 35.9355 98.6495 35.9355C95.9672 35.9355 93.4069 35.5072 90.9685 34.6506C88.53 33.7941 86.3877 32.5949 84.5415 31.0531C82.6952 29.4772 81.2321 27.5928 80.1523 25.4C79.0724 23.1731 78.5325 20.7063 78.5325 17.9996C78.5325 15.2929 79.0724 12.8432 80.1523 10.6506C81.2321 8.42353 82.6952 6.52201 84.5415 4.94603C86.3877 3.36998 88.53 2.17083 90.9685 1.34856C93.4069 0.492 95.9672 0.0637207 98.6495 0.0637207C99.9384 0.0637207 101.227 0.166504 102.516 0.372072C103.805 0.577639 105.042 0.903135 106.226 1.34856C107.445 1.75969 108.577 2.29076 109.622 2.94175C110.667 3.55845 111.591 4.27794 112.392 5.1002L112.601 10.5482ZM167.73 35.0623C167.556 35.0309 167.26 34.9968 166.842 34.9599C166.459 34.9599 166.041 34.9442 165.588 34.9128C165.135 34.9128 164.699 34.8972 164.282 34.8658H161.147C160.729 34.8971 160.311 34.9313 159.893 34.9682C159.51 34.9996 159.214 35.0337 159.005 35.0707L158.957 34.8647C159.306 34.6936 159.654 34.4708 160.002 34.1963C160.351 33.9225 160.542 33.4085 160.576 32.6546C160.608 31.8323 160.624 30.9758 160.624 30.085C160.656 29.1942 160.672 28.1834 160.672 27.0528V23.1984V18.0078V12.8173V8.91144C160.672 7.78083 160.656 6.78724 160.624 5.93068C160.624 5.03988 160.608 4.18336 160.576 3.36109C160.545 2.60731 160.353 2.09339 160.002 1.81933C159.653 1.51098 159.305 1.27124 158.957 1.10011L159.005 0.894281C159.214 0.962567 159.51 1.01396 159.893 1.04846C160.311 1.04846 160.729 1.06412 161.147 1.09546C161.6 1.12679 162.035 1.14246 162.453 1.14246H164.282C164.7 1.11113 165.135 1.09546 165.588 1.09546C166.041 1.06412 166.459 1.02998 166.842 0.99303C167.26 0.961695 167.556 0.927552 167.73 0.890601L167.778 1.09652C167.395 1.26762 167.029 1.50735 166.681 1.8157C166.367 2.08958 166.193 2.6035 166.158 3.35745C166.126 4.17972 166.091 5.03625 166.053 5.92704V30.0814C166.085 30.9721 166.12 31.8287 166.158 32.6509C166.189 33.4047 166.364 33.9186 166.681 34.1927C167.029 34.4666 167.395 34.6894 167.778 34.8611L167.73 35.0623Z" fill="black"/>
</g>
<defs>
<clipPath id="clip0_721_4807">
<rect width="167.778" height="35.8726" fill="white" transform="translate(0 0.0637207)"/>
</clipPath>
</defs>
</svg>
