<svg width="16" height="16" viewBox="0 0 16 16" fill="none" xmlns="http://www.w3.org/2000/svg">
<path d="M11.916 3.05691C11.7419 3.05691 11.5718 3.10971 11.427 3.20856C11.2824 3.30749 11.1696 3.44804 11.1029 3.61251C11.0363 3.77699 11.0189 3.95789 11.0529 4.13249C11.0869 4.30709 11.1706 4.46744 11.2937 4.59329C11.4168 4.71921 11.5736 4.80486 11.7443 4.83959C11.915 4.87431 12.0919 4.85654 12.2527 4.78844C12.4135 4.72026 12.551 4.60491 12.6477 4.45694C12.7443 4.30889 12.796 4.13489 12.796 3.95691C12.796 3.71819 12.7033 3.48929 12.5382 3.32054C12.3732 3.15171 12.1494 3.05691 11.916 3.05691ZM15.2893 4.87191C15.2751 4.24964 15.1611 3.63396 14.952 3.04941C14.7655 2.54924 14.4753 2.09639 14.1013 1.72191C13.7381 1.33746 13.2943 1.04256 12.8033 0.859415C12.2333 0.639065 11.6305 0.519814 11.0213 0.506914C10.244 0.461914 9.99463 0.461914 7.99996 0.461914C6.00529 0.461914 5.75596 0.461914 4.97863 0.506914C4.36937 0.519814 3.76665 0.639065 3.19663 0.859415C2.70654 1.04436 2.26302 1.33911 1.89863 1.72191C1.52272 2.09331 1.23437 2.54721 1.05529 3.04941C0.83984 3.63239 0.723239 4.24881 0.710626 4.87191C0.666626 5.66691 0.666626 5.92191 0.666626 7.96191C0.666626 10.0019 0.666626 10.2569 0.710626 11.0519C0.723239 11.675 0.83984 12.2914 1.05529 12.8744C1.23437 13.3766 1.52272 13.8305 1.89863 14.2019C2.26302 14.5847 2.70654 14.8795 3.19663 15.0644C3.76665 15.2848 4.36937 15.404 4.97863 15.4169C5.75596 15.4619 6.00529 15.4619 7.99996 15.4619C9.99463 15.4619 10.244 15.4619 11.0213 15.4169C11.6305 15.404 12.2333 15.2848 12.8033 15.0644C13.2943 14.8813 13.7381 14.5864 14.1013 14.2019C14.4769 13.8289 14.7674 13.3756 14.952 12.8744C15.1611 12.2899 15.2751 11.6742 15.2893 11.0519C15.2893 10.2569 15.3333 10.0019 15.3333 7.96191C15.3333 5.92191 15.3333 5.66691 15.2893 4.87191ZM13.9693 10.9619C13.9639 11.438 13.8797 11.9097 13.72 12.3569C13.6028 12.6833 13.4148 12.9782 13.17 13.2194C12.9321 13.4673 12.6443 13.6592 12.3266 13.7819C11.8893 13.9453 11.4281 14.0314 10.9626 14.0369C10.2293 14.0744 9.95796 14.0819 8.02929 14.0819C6.10063 14.0819 5.82929 14.0819 5.09596 14.0369C4.61262 14.0461 4.13133 13.9701 3.67329 13.8119C3.36955 13.683 3.09499 13.4915 2.86663 13.2494C2.62323 13.0084 2.43748 12.7133 2.32396 12.3869C2.14495 11.9333 2.04559 11.4508 2.03063 10.9619C2.03063 10.2119 1.98663 9.93441 1.98663 7.96191C1.98663 5.98941 1.98663 5.71191 2.03063 4.96191C2.03393 4.47524 2.12083 3.99284 2.28729 3.53691C2.41636 3.22034 2.61458 2.93819 2.86663 2.71191C3.08941 2.45406 3.36478 2.24924 3.67329 2.11191C4.12033 1.94691 4.59143 1.86074 5.06663 1.85691C5.79996 1.85691 6.07129 1.81191 7.99996 1.81191C9.92863 1.81191 10.2 1.81191 10.9333 1.85691C11.3988 1.86239 11.86 1.94856 12.2973 2.11191C12.6305 2.23844 12.9296 2.44401 13.17 2.71191C13.4103 2.94231 13.5981 3.22394 13.72 3.53691C13.883 3.99359 13.9673 4.47576 13.9693 4.96191C14.006 5.71191 14.0133 5.98941 14.0133 7.96191C14.0133 9.93441 14.006 10.2119 13.9693 10.9619ZM7.99996 4.11441C7.25621 4.11591 6.52963 4.34279 5.91194 4.76646C5.29418 5.19014 4.81319 5.79156 4.52953 6.49476C4.24595 7.19789 4.17247 7.97129 4.31848 8.71709C4.46449 9.46296 4.82331 10.1478 5.34977 10.6852C5.87615 11.2225 6.54649 11.5882 7.27609 11.736C8.00561 11.8839 8.76167 11.8072 9.44866 11.5158C10.1356 11.2244 10.7228 10.7312 11.1358 10.0987C11.5489 9.46611 11.7693 8.72256 11.7693 7.96191C11.7702 7.45574 11.6734 6.95436 11.4842 6.48666C11.295 6.01889 11.0173 5.59401 10.667 5.23649C10.3167 4.87889 9.90069 4.59569 9.44301 4.40309C8.98527 4.21056 8.49489 4.11246 7.99996 4.11441ZM7.99996 10.4594C7.51699 10.4594 7.04487 10.3129 6.64329 10.0385C6.24165 9.76409 5.92866 9.37401 5.74386 8.91764C5.55899 8.46134 5.51066 7.95914 5.60489 7.47464C5.69913 6.99021 5.93167 6.54516 6.27318 6.19589C6.61469 5.84661 7.04985 5.60879 7.52351 5.51241C7.99725 5.41604 8.48829 5.46546 8.93445 5.65454C9.38068 5.84354 9.76208 6.16364 10.0304 6.57441C10.2987 6.98511 10.442 7.46796 10.442 7.96191C10.442 8.28989 10.3788 8.61464 10.2561 8.91764C10.1334 9.22071 9.95348 9.49596 9.72674 9.72794C9.49992 9.95984 9.23079 10.1438 8.93445 10.2693C8.63818 10.3948 8.32065 10.4594 7.99996 10.4594Z" fill="#ECE5DB"/>
</svg>
