<svg width="14" height="13" viewBox="0 0 14 13" fill="none" xmlns="http://www.w3.org/2000/svg">
<path d="M0.743774 1.69294C0.743774 1.26364 0.892422 0.909489 1.18972 0.630489C1.48701 0.351414 1.87347 0.211914 2.34919 0.211914C2.81639 0.211914 3.19435 0.349314 3.48314 0.624039C3.78043 0.907389 3.92908 1.27654 3.92908 1.73164C3.92908 2.14376 3.78469 2.48719 3.4959 2.76191C3.19861 3.04526 2.80789 3.18694 2.32367 3.18694H2.31098C1.84377 3.18694 1.46581 3.04526 1.17695 2.76191C0.888168 2.47856 0.743774 2.12224 0.743774 1.69294ZM0.909435 12.9619V4.35889H3.73797V12.9619H0.909435ZM5.30518 12.9619H8.13372V8.15809C8.13372 7.85756 8.16775 7.62581 8.23565 7.46269C8.3546 7.17071 8.53507 6.92389 8.77715 6.72214C9.01922 6.52039 9.32289 6.41951 9.68817 6.41951C10.6395 6.41951 11.1152 7.06774 11.1152 8.36419V12.9619H13.9438V8.02931C13.9438 6.75859 13.6465 5.79484 13.0519 5.13806C12.4573 4.48121 11.6716 4.15279 10.6947 4.15279C9.59899 4.15279 8.74532 4.62934 8.13372 5.58236V5.60809H8.12096L8.13372 5.58236V4.35889H5.30518C5.32212 4.63361 5.33063 5.48794 5.33063 6.92171C5.33063 8.35556 5.32212 10.3689 5.30518 12.9619Z" fill="#ECE5DB"/>
</svg>
