<svg width="17" height="18" viewBox="0 0 17 18" fill="none" xmlns="http://www.w3.org/2000/svg">
<g clip-path="url(#clip0_750_4795)">
<path d="M0 0.603271V17.3967H16.7934V0.603271H0ZM16.0939 1.30283V4.45152H0.700219V1.30283H16.0939ZM0.699562 16.6971V5.15174H16.0932V16.6971H0.699562Z" fill="black"/>
<path d="M5.25 2.35229H6.3V3.40164H5.25V2.35229Z" fill="black"/>
<path d="M10.4961 2.35229H11.5454V3.40164H10.4961V2.35229Z" fill="black"/>
<path d="M6.00322 7.64029C5.87787 8.49145 5.47297 8.50654 4.65791 8.53608L4.53125 8.54067V9.13392H5.912V13.015H6.64438V7.52808H6.01897L6.00322 7.64029Z" fill="black"/>
<path d="M10.1317 9.2899C9.80619 9.2899 9.47216 9.39621 9.20769 9.57405L9.45706 8.29108H11.7638V7.59546H8.91106L8.35456 10.567H8.98784L9.02656 10.5066C9.24772 10.1621 9.65131 9.94746 10.0805 9.94746C10.7787 9.94746 11.2854 10.4639 11.2854 11.1746C11.2854 11.8178 10.8818 12.4688 10.1107 12.4688C9.45181 12.4688 8.978 12.0238 8.95831 11.3866L8.95437 11.2593H8.22266L8.22594 11.3938C8.24956 12.4307 8.99178 13.127 10.0739 13.127C11.1646 13.127 12.0184 12.2922 12.0184 11.2271C12.0184 10.0682 11.2611 9.28924 10.1337 9.28924L10.1317 9.2899Z" fill="black"/>
</g>
<defs>
<clipPath id="clip0_750_4795">
<rect width="16.7934" height="16.7934" fill="white" transform="translate(0 0.603271)"/>
</clipPath>
</defs>
</svg>
