<svg width="155" height="40" viewBox="0 0 155 40" fill="none" xmlns="http://www.w3.org/2000/svg">
<g clip-path="url(#clip0_721_4808)">
<path fill-rule="evenodd" clip-rule="evenodd" d="M45.4942 40C40.9906 40 36.6828 37.4775 33.8938 34.032C30.7156 30.1158 29.1672 25.0544 29.1672 20.049C29.1672 15.2393 30.5897 10.4009 33.531 6.56698C36.4311 2.80302 40.7948 0.111892 45.6472 0.111892C50.1088 0.111892 54.3886 2.66398 57.1357 6.06512C60.3007 9.98293 61.8763 15.0575 61.8763 20.0638C61.8763 24.8586 60.4398 29.697 57.5117 33.5309C54.6404 37.2661 50.3038 40 45.4942 40ZM0.237793 0.934615H13.8037V1.32376H10.4717L20.5936 29.0405L29.1401 1.32376H25.7801V0.934615H33.0998V1.32376H29.8649L17.8194 39.6364L3.80759 1.32376H0.237793V0.934615ZM91.5733 0.264916V13.5799H91.2664C90.6946 10.9587 89.8859 8.40741 88.4782 6.09309C86.8056 3.38797 84.1424 0.34966 80.6705 0.34966C72.6959 0.34966 71.9711 14.6404 71.9711 20.0917C71.9711 24.9721 72.361 30.0047 74.1315 34.5774C75.3722 37.7844 77.1707 39.3591 80.5035 39.3591C83.1519 39.3591 85.9689 38.0205 87.3766 35.7194C87.7394 35.1196 87.7674 34.4515 87.7674 33.7687V23.4781H84.2823V23.0749H97.0395V23.4781H94.0554V38.8704H93.7922C93.0386 37.6157 91.853 36.793 90.3343 36.793C89.2318 36.793 88.1582 37.1838 87.198 37.7136L86.3334 38.1875C84.381 39.0522 82.5118 39.6783 80.3513 39.6783C70.4531 39.6783 65.1828 29.1244 65.1828 20.3698C65.1828 13.9698 67.623 7.12396 72.8094 3.12306C75.1377 1.32376 77.9539 0 80.9511 0C82.1227 0 83.2794 0.362001 84.3671 0.794754L85.1626 1.10162C86.0693 1.43647 87.059 1.75652 88.0339 1.75652C89.2474 1.75652 90.3351 0.961763 91.2689 0.264916H91.5733ZM95.38 0.934615H108.987V1.32459H105.376V30.8686C105.376 35.4964 110.144 38.3134 114.312 38.3134C118.801 38.3134 122.579 35.1912 122.579 30.6037V1.32376H118.314V0.933793H153.435V14.6387H153.17C152.765 11.0138 152.067 7.29097 149.572 4.4608C147.05 1.60266 143.619 1.32376 140.092 1.32376H136.287V18.9473C137.066 19.0304 137.861 19.0864 138.657 19.0864C143.439 19.0864 144.679 15.7963 144.888 11.7246H145.237V27.1861H144.888C144.288 23.492 142.658 19.5323 138.321 19.5323C137.638 19.5323 136.97 19.5742 136.287 19.6302V38.4796H141.988C144.945 38.4796 147.885 37.197 149.978 35.1344C151.761 33.3779 153.004 31.0915 153.436 28.6234C153.672 27.2428 153.784 25.8352 153.853 24.4407H154.16V38.8704H126.709V38.4796H129.902V1.32376H123.153V30.7147C123.153 36.7922 117.38 39.4833 111.972 39.4833C105.852 39.4833 99.102 36.5141 99.102 29.5144V1.32376H95.3809L95.38 0.934615Z" fill="black"/>
<path fill-rule="evenodd" clip-rule="evenodd" d="M54.76 19.8119C54.76 14.2766 52.7805 0.445801 45.2937 0.445801C37.779 0.445801 35.8267 14.2626 35.8267 19.8119C35.8267 25.3603 37.793 39.1911 45.2937 39.1911C52.7805 39.1903 54.76 25.3472 54.76 19.8119Z" fill="white"/>
</g>
<defs>
<clipPath id="clip0_721_4808">
<rect width="153.923" height="40" fill="white" transform="translate(0.237793)"/>
</clipPath>
</defs>
</svg>
