<svg width="122" height="258" viewBox="0 0 122 258" fill="none" xmlns="http://www.w3.org/2000/svg">
<g clip-path="url(#clip0_793_4797)">
<path d="M122 248.078C122 253.325 117.747 257.578 112.5 257.578H9.5C4.25329 257.578 0 253.325 0 248.078L1.19805e-05 108.084C1.69805e-05 51.7284 43.2423 5.11373 98.0671 0.0368402C103.243 -0.442407 107.512 3.81829 107.512 9.07844V49.3731C107.512 54.6004 103.216 58.8107 97.9784 59.9058C75.6539 64.5738 59.0216 84.4985 59.0216 108.084V110.856C59.0216 116.655 63.7226 121.356 69.5216 121.356H112.5C117.747 121.356 122 125.609 122 130.856V248.078Z" fill="white" stroke="black"/>
</g>
<defs>
<clipPath id="clip0_793_4797">
<rect width="122" height="257.578" fill="white"/>
</clipPath>
</defs>
</svg>
