<svg width="18" height="16" viewBox="0 0 18 16" fill="none" xmlns="http://www.w3.org/2000/svg">
<g clip-path="url(#clip0_747_4788)">
<path d="M6.66 15.48V8.82H3.12C3.12 8.14 3.16 7.46 3.24 6.78C3.36 6.06 3.56 5.42 3.84 4.86C4.12 4.3 4.48 3.86 4.92 3.54C5.36 3.18 5.92 3 6.6 3V0C5.48 0 4.5 0.240001 3.66 0.720002C2.82 1.2 2.12 1.84 1.56 2.64C1.04 3.44 0.64 4.38 0.36 5.46C0.12 6.5 0 7.62 0 8.82V15.48H6.66ZM17.64 15.48V8.82H14.1C14.1 8.14 14.14 7.46 14.22 6.78C14.34 6.06 14.54 5.42 14.82 4.86C15.1 4.3 15.46 3.86 15.9 3.54C16.34 3.18 16.9 3 17.58 3V0C16.46 0 15.48 0.240001 14.64 0.720002C13.8 1.2 13.1 1.84 12.54 2.64C12.02 3.44 11.62 4.38 11.34 5.46C11.1 6.5 10.98 7.62 10.98 8.82V15.48H17.64Z" fill="black"/>
</g>
<defs>
<clipPath id="clip0_747_4788">
<rect width="17.64" height="15.48" fill="white"/>
</clipPath>
</defs>
</svg>
