<svg width="80" height="79" viewBox="0 0 80 79" fill="none" xmlns="http://www.w3.org/2000/svg">
<g clip-path="url(#clip0_770_4788)">
<path d="M40.0258 40.3804C37.1399 40.3835 34.3179 39.5306 31.9168 37.9295C29.5157 36.3284 27.6435 34.0512 26.5369 31.3858C25.4303 28.7205 25.1392 25.7868 25.7003 22.9559C26.2614 20.1251 27.6495 17.5242 29.6891 15.4825C31.7286 13.4407 34.3279 12.0497 37.1582 11.4856C39.9884 10.9214 42.9224 11.2094 45.589 12.313C48.2555 13.4167 50.5348 15.2865 52.1385 17.6859C53.7422 20.0852 54.5981 22.9063 54.5981 25.7922C54.594 29.6572 53.0578 33.3629 50.3263 36.0974C47.5949 38.8318 43.8908 40.372 40.0258 40.3804ZM40.0258 15.9666C38.078 15.9635 36.1731 16.5384 34.5523 17.6186C32.9314 18.6988 31.6676 20.2356 30.9207 22.0346C30.1739 23.8335 29.9777 25.8136 30.3569 27.7241C30.7361 29.6347 31.6738 31.3897 33.0511 32.767C34.4284 34.1443 36.1834 35.0819 38.0939 35.4612C40.0045 35.8404 41.9845 35.6442 43.7835 34.8973C45.5824 34.1505 47.1193 32.8866 48.1995 31.2658C49.2797 29.6449 49.8546 27.74 49.8515 25.7922C49.8515 23.1863 48.8163 20.6871 46.9736 18.8445C45.1309 17.0018 42.6317 15.9666 40.0258 15.9666Z" fill="black"/>
<path d="M40.0244 78.0037C31.2906 77.9955 22.8117 75.0596 15.9429 69.6653C15.6863 69.4619 15.474 69.2082 15.3189 68.9198C15.1638 68.6314 15.0692 68.3144 15.041 67.9882C15.041 67.735 15.041 67.4977 15.041 67.2445C15.041 63.9616 15.6876 60.7108 16.944 57.6778C18.2003 54.6447 20.0417 51.8888 22.3631 49.5674C24.6845 47.2461 27.4404 45.4046 30.4734 44.1483C33.5065 42.892 36.7572 42.2454 40.0402 42.2454C43.3231 42.2454 46.5739 42.892 49.607 44.1483C52.64 45.4046 55.3959 47.2461 57.7173 49.5674C60.0387 51.8888 61.8801 54.6447 63.1364 57.6778C64.3927 60.7108 65.0394 63.9616 65.0394 67.2445C65.0394 67.4977 65.0394 67.735 65.0394 67.9882C65.0111 68.3144 64.9166 68.6314 64.7615 68.9198C64.6064 69.2082 64.3941 69.4619 64.1375 69.6653C57.2602 75.0663 48.769 78.0025 40.0244 78.0037ZM19.7877 66.6275C25.6563 70.9335 32.7454 73.2554 40.0244 73.2554C47.3033 73.2554 54.3924 70.9335 60.261 66.6275C60.0542 61.3988 57.8317 56.4532 54.0592 52.8269C50.2867 49.2007 45.2571 47.1754 40.0244 47.1754C34.7917 47.1754 29.762 49.2007 25.9895 52.8269C22.217 56.4532 19.9945 61.3988 19.7877 66.6275Z" fill="black"/>
<path d="M40.0203 78.0037C30.7963 78.0085 21.8693 74.744 14.8244 68.79C7.7795 62.836 3.07283 54.5779 1.54025 45.4822C0.00767583 36.3865 1.74838 27.0419 6.45323 19.1082C11.1581 11.1744 18.5226 5.16483 27.2388 2.1468C35.955 -0.871227 45.4587 -0.702396 54.0622 2.62331C62.6657 5.94901 69.8121 12.2163 74.2322 20.3122C78.6523 28.4081 80.06 37.8085 78.2053 46.8441C76.3507 55.8796 71.3537 63.9654 64.1017 69.6654C57.2329 75.0597 48.754 77.9955 40.0203 78.0037ZM40.0203 4.77832C32.9027 4.77865 25.9623 6.99811 20.1653 11.1277C14.3682 15.2574 10.0029 21.0917 7.67711 27.8185C5.35127 34.5453 5.18061 41.8299 7.18888 48.6583C9.19715 55.4866 13.2844 61.519 18.8817 65.9155C23.9315 69.8786 29.9937 72.3423 36.3764 73.0254C42.7592 73.7086 49.2055 72.5837 54.9796 69.7791C60.7537 66.9745 65.6232 62.6032 69.0322 57.1641C72.4413 51.7249 74.2527 45.4369 74.2596 39.0177C74.2471 29.9407 70.6357 21.2391 64.2173 14.8207C57.7989 8.40226 49.0973 4.79088 40.0203 4.77832Z" fill="#FF8A35"/>
</g>
<defs>
<clipPath id="clip0_770_4788">
<rect width="78.0039" height="78.0038" fill="white" transform="translate(0.998047)"/>
</clipPath>
</defs>
</svg>
