<svg width="36" height="41" viewBox="0 0 36 41" fill="none" xmlns="http://www.w3.org/2000/svg">
<g clip-path="url(#clip0_793_4792)">
<path d="M35.8871 39.429L32.8739 10.291H3.74716L0.623047 40.4999H35.998L35.8871 39.429ZM2.79417 38.5566L5.51521 12.2342H31.1053L33.8269 38.5566H2.79417Z" fill="black"/>
<path d="M10.8789 16.3714C10.2022 16.3714 9.6543 16.9154 9.6543 17.5859C9.6543 18.2565 10.2022 18.8005 10.8789 18.8005C11.5557 18.8005 12.1035 18.2565 12.1035 17.5859C12.1036 16.9154 11.5557 16.3714 10.8789 16.3714Z" fill="black"/>
<path d="M25.7422 16.3714C25.0654 16.3714 24.5176 16.9154 24.5176 17.5859C24.5176 18.2565 25.0655 18.8005 25.7422 18.8005C26.4189 18.8005 26.9668 18.2565 26.9668 17.5859C26.9668 16.9154 26.4189 16.3714 25.7422 16.3714Z" fill="black"/>
<path d="M13.6945 4.3404C14.8795 3.16633 16.506 2.44391 18.313 2.44328C20.12 2.44391 21.7464 3.16633 22.9314 4.3404C24.1146 5.51571 24.8436 7.12884 24.8443 8.92088H26.8037C26.803 4.26962 23.0028 0.500625 18.313 0.5C13.623 0.500625 9.8229 4.26962 9.82227 8.92095H11.7817C11.7823 7.12884 12.5113 5.51579 13.6945 4.3404Z" fill="black"/>
</g>
<defs>
<clipPath id="clip0_793_4792">
<rect width="35.375" height="40" fill="white" transform="translate(0.623047 0.5)"/>
</clipPath>
</defs>
</svg>
