<svg width="17" height="18" viewBox="0 0 17 18" fill="none" xmlns="http://www.w3.org/2000/svg">
<g clip-path="url(#clip0_750_4797)">
<path d="M8.60786 9.29643C7.98657 9.2971 7.37903 9.11348 6.86212 8.7688C6.3452 8.42412 5.94214 7.93386 5.70391 7.36006C5.46568 6.78625 5.403 6.15467 5.5238 5.54524C5.64459 4.9358 5.94344 4.37588 6.38252 3.93632C6.8216 3.49676 7.3812 3.19731 7.9905 3.07586C8.59981 2.9544 9.23145 3.01639 9.80552 3.254C10.3796 3.4916 10.8703 3.89413 11.2155 4.41067C11.5608 4.92722 11.745 5.53455 11.745 6.15584C11.7441 6.98791 11.4134 7.7857 10.8254 8.37438C10.2374 8.96306 9.43993 9.29463 8.60786 9.29643ZM8.60786 4.04055C8.18853 4.03987 7.77843 4.16365 7.42949 4.39619C7.08055 4.62874 6.80846 4.9596 6.64768 5.34688C6.4869 5.73416 6.44466 6.16045 6.5263 6.57175C6.60794 6.98306 6.8098 7.36089 7.10631 7.6574C7.40282 7.95391 7.78065 8.15576 8.19195 8.23741C8.60326 8.31905 9.02954 8.2768 9.41682 8.11602C9.8041 7.95524 10.135 7.68315 10.3675 7.33421C10.6001 6.98527 10.7238 6.57517 10.7232 6.15584C10.7232 5.59483 10.5003 5.0568 10.1036 4.6601C9.70691 4.26341 9.16887 4.04055 8.60786 4.04055Z" fill="black"/>
<path d="M8.60702 17.3964C6.72679 17.3947 4.90142 16.7626 3.42267 15.6013C3.36744 15.5575 3.32172 15.5029 3.28834 15.4408C3.25495 15.3787 3.23459 15.3105 3.22852 15.2403C3.22852 15.1858 3.22852 15.1347 3.22852 15.0802C3.22852 14.3734 3.36772 13.6736 3.63819 13.0206C3.90866 12.3676 4.30509 11.7743 4.80484 11.2746C5.3046 10.7748 5.8979 10.3784 6.55086 10.1079C7.20383 9.83745 7.90367 9.69824 8.61043 9.69824C9.31719 9.69824 10.017 9.83745 10.67 10.1079C11.323 10.3784 11.9163 10.7748 12.416 11.2746C12.9158 11.7743 13.3122 12.3676 13.5827 13.0206C13.8531 13.6736 13.9923 14.3734 13.9923 15.0802C13.9923 15.1347 13.9923 15.1858 13.9923 15.2403C13.9863 15.3105 13.9659 15.3787 13.9325 15.4408C13.8991 15.5029 13.8534 15.5575 13.7982 15.6013C12.3176 16.7641 10.4896 17.3962 8.60702 17.3964ZM4.2504 14.9473C5.51381 15.8743 7.03999 16.3742 8.60702 16.3742C10.1741 16.3742 11.7002 15.8743 12.9637 14.9473C12.9191 13.8217 12.4407 12.757 11.6285 11.9763C10.8163 11.1956 9.73354 10.7596 8.60702 10.7596C7.48051 10.7596 6.39771 11.1956 5.58555 11.9763C4.77339 12.757 4.29492 13.8217 4.2504 14.9473Z" fill="black"/>
<path d="M8.60788 17.3965C6.62212 17.3975 4.70026 16.6947 3.18361 15.4129C1.66697 14.1311 0.653699 12.3532 0.32376 10.3951C-0.00617948 8.43693 0.368566 6.4252 1.38144 4.71719C2.39432 3.00917 3.97977 1.71542 5.85623 1.06569C7.73268 0.415955 9.77869 0.452301 11.6309 1.16827C13.4831 1.88424 15.0216 3.23349 15.9731 4.9764C16.9247 6.71932 17.2278 8.74308 16.8285 10.6883C16.4292 12.6335 15.3534 14.3742 13.7922 15.6013C12.3135 16.7626 10.4881 17.3947 8.60788 17.3965ZM8.60788 1.63221C7.07558 1.63228 5.58143 2.1101 4.33342 2.99914C3.08541 3.88818 2.14564 5.14421 1.64492 6.59238C1.14421 8.04056 1.10747 9.60882 1.53982 11.0789C1.97216 12.5489 2.85209 13.8475 4.05709 14.7941C5.14423 15.6472 6.44932 16.1776 7.82342 16.3247C9.19753 16.4718 10.5853 16.2296 11.8284 15.6258C13.0715 15.022 14.1198 14.081 14.8537 12.91C15.5876 11.739 15.9776 10.3853 15.9791 9.00339C15.9764 7.04926 15.1989 5.17594 13.8171 3.79416C12.4353 2.41239 10.562 1.63491 8.60788 1.63221Z" fill="black"/>
</g>
<defs>
<clipPath id="clip0_750_4797">
<rect width="16.793" height="16.7929" fill="white" transform="translate(0.207031 0.603516)"/>
</clipPath>
</defs>
</svg>
