<svg width="22" height="18" viewBox="0 0 22 18" fill="none" xmlns="http://www.w3.org/2000/svg">
<g clip-path="url(#clip0_750_4796)">
<path d="M11 10.0675C10.9353 10.0675 10.8714 10.0532 10.8081 10.0253L1.08839 5.67582C0.905349 5.59416 0.78899 5.40704 0.793073 5.19813C0.797156 4.99196 0.923041 4.80483 1.10608 4.73338L10.8271 0.867693C10.8829 0.845918 10.9408 0.834351 11 0.834351C11.0585 0.834351 11.117 0.845918 11.1728 0.867693L20.8932 4.73202C21.0803 4.80687 21.2028 4.98923 21.2068 5.19677C21.2123 5.40636 21.0959 5.59416 20.9115 5.67582L11.1912 10.0274C11.1306 10.0539 11.0653 10.0675 11 10.0675ZM2.57996 5.23556L10.9761 8.99306L19.42 5.23556L11 1.88838L2.57996 5.23556Z" fill="black"/>
<path d="M1.0876 9.33341C0.841952 9.2225 0.726954 8.92241 0.831745 8.66452C0.908637 8.47739 1.08488 8.35559 1.28017 8.35559C1.34617 8.35559 1.41014 8.36988 1.47206 8.39778L10.976 12.65L20.5276 8.39778C20.5902 8.3692 20.6542 8.35559 20.7202 8.35559C20.9148 8.35559 21.0904 8.47603 21.1666 8.66452C21.2721 8.92241 21.1571 9.2225 20.9107 9.33341L10.9992 13.7686L1.0876 9.33341Z" fill="black"/>
<path d="M1.08798 12.7291C0.841656 12.6175 0.726658 12.3181 0.83213 12.0616C0.909021 11.8745 1.08526 11.7527 1.28055 11.7527C1.34656 11.7527 1.41052 11.767 1.47244 11.7942L10.9764 16.0471L20.528 11.7942C20.5893 11.7677 20.6546 11.7527 20.7206 11.7527C20.9152 11.7527 21.0908 11.8745 21.167 12.0616C21.2724 12.3188 21.1574 12.6189 20.9118 12.7291L10.9996 17.1657L1.08798 12.7291Z" fill="black"/>
</g>
<defs>
<clipPath id="clip0_750_4796">
<rect width="20.4141" height="16.3313" fill="white" transform="translate(0.792969 0.834351)"/>
</clipPath>
</defs>
</svg>
