<svg width="35" height="35" viewBox="0 0 35 35" fill="none" xmlns="http://www.w3.org/2000/svg">
<g clip-path="url(#clip0_793_4799)">
<path d="M17.5 0C7.835 0 0 7.835 0 17.5C0 27.165 7.835 35 17.5 35C27.165 35 35 27.165 35 17.5C35 7.835 27.165 0 17.5 0ZM17.5 33.75C8.54 33.75 1.25 26.46 1.25 17.5C1.25 8.54 8.54 1.25 17.5 1.25C26.46 1.25 33.75 8.54 33.75 17.5C33.75 26.46 26.46 33.75 17.5 33.75ZM17.5 2.5C11.2863 2.5 6.25 7.53625 6.25 13.75V17.5C6.25 23.7038 11.2963 28.75 17.5 28.75C23.7038 28.75 28.75 23.7038 28.75 17.5V13.75C28.75 7.53625 23.7138 2.5 17.5 2.5ZM17.5 3.75C23.0138 3.75 27.5 8.23625 27.5 13.75C27.5 19.2638 23.0138 23.75 17.5 23.75C11.9862 23.75 7.5 19.2638 7.5 13.75C7.5 8.23625 11.9862 3.75 17.5 3.75ZM17.5 27.5C12.5625 27.5 8.46 23.9 7.65375 19.1887C9.57125 22.6525 13.26 25 17.5 25C21.74 25 25.4288 22.6525 27.3463 19.1887C26.54 23.9 22.4375 27.5 17.5 27.5Z" fill="#0B1719"/>
</g>
<defs>
<clipPath id="clip0_793_4799">
<rect width="35" height="35" fill="white"/>
</clipPath>
</defs>
</svg>
