<svg width="39" height="38" viewBox="0 0 39 38" fill="none" xmlns="http://www.w3.org/2000/svg">
<g clip-path="url(#clip0_711_4795)">
<path d="M30.4688 13.2952C33.8343 13.2952 36.5625 10.5343 36.5625 7.12858C36.5625 3.72283 33.8343 0.961914 30.4688 0.961914C27.1033 0.961914 24.375 3.72283 24.375 7.12858C24.375 10.5343 27.1033 13.2952 30.4688 13.2952Z" fill="white"/>
<path d="M22.7585 3.42847H6.09376C2.72827 3.42847 0 6.18938 0 9.59513V26.8618C0 30.2675 2.72827 33.0285 6.09376 33.0285H28.0313C31.3968 33.0285 34.1251 30.2675 34.1251 26.8618V14.931C33.3672 15.2952 32.5482 15.5498 31.6875 15.6744V26.8618C31.6875 28.9052 30.0505 30.5618 28.0313 30.5618H6.09376C4.07446 30.5618 2.4375 28.9052 2.4375 26.8618V13.2039L16.4446 20.5249L16.6421 20.6195C16.9811 20.7457 17.3626 20.7141 17.6805 20.5249L27.6857 15.292C26.726 14.957 25.8439 14.4536 25.0739 13.8167L17.0625 18.0309L2.4375 10.3401V9.59513C2.4375 7.55167 4.07446 5.89513 6.09376 5.89513H22.0238C22.1469 5.02423 22.3985 4.19523 22.7585 3.42847Z" fill="white"/>
<path d="M10.9687 37.9619C8.97505 37.9619 7.20501 36.993 6.09326 35.4952H28.0312C32.7429 35.4952 36.5625 31.63 36.5625 26.8619V14.5286C38.0426 15.6536 39 17.4444 39 19.4619V26.8619C39 32.9923 34.0892 37.9619 28.0312 37.9619H10.9687Z" fill="white"/>
</g>
<defs>
<clipPath id="clip0_711_4795">
<rect width="39" height="37" fill="white" transform="translate(0 0.961914)"/>
</clipPath>
</defs>
</svg>
