<svg width="123" height="258" viewBox="0 0 123 258" fill="none" xmlns="http://www.w3.org/2000/svg">
<g clip-path="url(#clip0_793_4798)">
<path d="M123 248.085C123 253.332 118.747 257.585 113.5 257.585H9.5C4.253 257.585 0 253.332 0 248.085V108.091C0 51.7108 43.634 5.07538 98.948 0.0357359C104.125 -0.435944 108.394 3.82474 108.394 9.08463V49.3793C108.394 54.6068 104.099 58.8178 98.86 59.8954C76.318 64.532 59.51 84.4739 59.51 108.091V110.863C59.51 116.662 64.211 121.363 70.01 121.363H113.5C118.747 121.363 123 125.616 123 130.863V248.085Z" fill="white" stroke="black"/>
</g>
<defs>
<clipPath id="clip0_793_4798">
<rect width="123" height="257.585" fill="white"/>
</clipPath>
</defs>
</svg>
