<svg width="102" height="40" viewBox="0 0 102 40" fill="none" xmlns="http://www.w3.org/2000/svg">
<g clip-path="url(#clip0_721_4810)">
<path fill-rule="evenodd" clip-rule="evenodd" d="M4.18025 0.949323L2.2681 0.85022L1.47991 0.69209L1.32228 0.395325C1.32228 0.118597 1.51932 0 1.91396 0H21.6871C30.9526 0 37.4578 2.82793 41.2433 8.50329C43.4118 11.7861 44.4959 15.682 44.4959 20.1908C44.4959 22.5444 44.1412 24.8183 43.4113 27.0132C42.5837 29.3272 41.4403 31.3645 39.9616 33.184C38.3448 35.1016 36.3738 36.5855 34.1064 37.6729C31.6814 38.7803 28.9611 39.3538 25.9055 39.3538H0.691191C0.277124 39.3538 0.0800781 39.2152 0.0800781 38.9785C0.0800781 38.7213 0.375917 38.5832 0.927646 38.5832L5.7577 38.287C6.50702 38.1873 7.03931 37.9696 7.29574 37.6734L7.78863 36.9808C7.96624 36.5069 8.06503 35.7953 8.08446 34.826V3.46099C8.08446 2.23494 7.39453 1.48328 6.05408 1.18652L4.18025 0.949323ZM14.8261 1.48328L14.6879 2.27447V37.0994C14.6879 37.4947 14.7668 37.7709 14.9244 37.8705L15.7131 37.9891H18.3152L24.3475 37.7714C25.9638 37.5938 27.3437 37.3366 28.4282 36.9802C29.5066 36.5857 30.5174 36.0255 31.4244 35.3199C32.2132 34.6673 33.0213 33.7375 33.9088 32.551C35.3869 30.6133 36.4515 28.1412 37.1021 25.1156C37.4961 23.139 37.6937 21.2203 37.6937 19.3812C37.6937 17.7599 37.4573 16.0193 36.9644 14.1407C36.2745 11.4314 35.2293 9.05836 33.7506 7.04112C30.8921 3.12578 26.2003 1.1876 19.7145 1.1876H15.7126C15.2596 1.14699 14.9638 1.24609 14.8261 1.48328ZM48.379 39.0571C48.3396 38.8193 48.5367 38.7208 48.9707 38.7208L50.3506 38.6807C51.0999 38.5821 51.5534 38.3254 51.7304 37.9296L51.9869 36.5059V25.016C51.9869 24.5811 51.8287 24.2448 51.5334 24.0471L50.5082 23.9475L49.1283 24.3239L48.379 24.2838C48.2802 24.0466 48.5761 23.8289 49.266 23.6312C50.9023 23.1964 52.3421 22.6424 53.5638 21.9503C54.3125 21.5154 54.8448 21.2777 55.0813 21.1791L55.673 21.1201C55.87 21.1591 55.9693 21.555 55.9693 22.2666V36.742C55.9693 37.4335 56.1264 37.9285 56.4228 38.2247C56.777 38.581 57.6056 38.7587 58.8867 38.7587C59.3402 38.7587 59.5761 38.8583 59.6166 39.0749C59.6166 39.2536 59.4784 39.3127 59.2414 39.3127H48.7337C48.4972 39.3143 48.379 39.2146 48.379 39.0571ZM94.9035 24.8183C93.9377 25.8272 93.2871 27.0132 92.9319 28.4369V36.8421C92.9319 37.5933 93.1884 38.1272 93.7206 38.4635L94.924 38.6801L96.1851 38.8188C96.4814 38.8589 96.5997 38.9184 96.5997 39.076L96.5408 39.2146L96.2056 39.3143H85.6585C85.3432 39.3143 85.1662 39.2146 85.1662 39.0571L85.4615 38.8193L87.2359 38.6807C87.9253 38.5621 88.3599 38.3254 88.5964 37.9691L88.8928 37.0793V25.2142L88.6946 24.3439L88.3605 24.1463C88.2611 24.0477 88.104 23.9887 87.867 23.9486C87.5717 23.9296 87.2165 23.9887 86.8424 24.1463L85.8377 24.4235L85.2649 24.2849C85.1667 24.1463 85.2061 24.0477 85.3438 23.9887L86.1913 23.6323C88.1229 23.0588 89.6804 22.4659 90.7655 21.8534L92.1054 21.1212L92.6971 21.1602L92.9335 21.6552V26.0054C94.4127 23.5928 95.595 22.1101 96.4037 21.6151C96.8961 21.3189 97.3695 21.0811 97.7247 20.9826L98.4141 20.9235C98.8476 20.8835 99.341 21.0221 99.8922 21.3784C100.642 21.8133 101.036 22.4658 101.075 23.296C101.115 23.9887 100.917 24.5232 100.483 24.9374C100.089 25.2737 99.6946 25.3734 99.3405 25.2737C99.0053 25.2147 98.7488 25.0761 98.5717 24.8784L98.0195 24.1869C97.586 23.5533 97.1719 23.3556 96.6796 23.5343C96.1057 23.6908 95.5151 24.1268 94.9035 24.8183ZM53.702 8.56286C52.9721 8.56286 52.3809 8.82009 51.8886 9.31452C51.3563 9.80894 51.0999 10.4415 51.1387 11.1736C51.0999 11.8657 51.3558 12.4592 51.8886 12.9537C52.3809 13.4481 52.9726 13.7048 53.702 13.7048C54.3913 13.7048 55.003 13.4476 55.4953 12.9537C55.9877 12.4592 56.2641 11.8663 56.2641 11.1736C56.2641 10.4415 55.9877 9.80894 55.4953 9.31452C55.003 8.82009 54.3913 8.56286 53.702 8.56286ZM64.1503 24.3434C64.8596 23.3946 65.7477 22.6034 66.8117 21.9709C67.7586 21.4169 68.7044 21.0611 69.6902 20.8824L73.3374 20.6658C74.6574 20.7248 75.8807 20.982 76.9847 21.4759C79.6462 22.6624 81.3213 24.8383 81.9519 28.002C82.6024 31.2058 82.0512 33.9157 80.3156 36.1105C78.8375 37.9691 76.8854 39.1556 74.4215 39.6695C71.8394 40.243 69.4343 40.0649 67.2652 39.1757C64.4456 38.0281 62.7315 35.7542 62.1787 32.4318C61.6858 29.2882 62.3364 26.6178 64.1503 24.3434ZM75.702 23.4542C74.4998 22.1101 72.9817 21.5165 71.1478 21.6741C69.3744 21.8528 68.014 22.8406 67.1265 24.7192C66.3188 26.4202 66.0225 28.4975 66.3188 30.9491C66.5348 33.3817 67.3046 35.3193 68.5457 36.8026C69.8668 38.365 71.3654 39.0175 73.0405 38.7213C74.7951 38.385 76.0772 37.4351 76.9248 35.8538C77.7524 34.2325 78.0477 32.1362 77.8506 29.4664C77.6147 26.7966 76.9253 24.8183 75.702 23.4542ZM48.2408 24.3244V24.5221L47.8068 24.2448V24.3434L47.8462 24.5221H47.7868V24.1457H47.8068L48.2009 24.443V24.1457H48.2797L48.2408 24.3244Z" fill="black"/>
</g>
<defs>
<clipPath id="clip0_721_4810">
<rect width="101" height="40" fill="white" transform="translate(0.0800781)"/>
</clipPath>
</defs>
</svg>
