<svg width="34" height="41" viewBox="0 0 34 41" fill="none" xmlns="http://www.w3.org/2000/svg">
<g clip-path="url(#clip0_793_4793)">
<path d="M27.2895 39.3856L25.9825 31.7655C25.7986 30.6923 26.1542 29.5978 26.9339 28.838L32.4697 23.4417C32.8479 23.0731 32.9816 22.5315 32.8182 22.0292C32.6549 21.5269 32.2288 21.1677 31.7059 21.0917L24.0554 19.9799C22.9778 19.8232 22.0467 19.1468 21.5649 18.1706L18.1441 11.2384C17.9104 10.7645 17.4369 10.4702 16.9088 10.4702C16.3808 10.4702 15.9073 10.7645 15.6735 11.238L12.2519 18.171C11.7701 19.1472 10.839 19.8236 9.76145 19.9803L2.11049 21.0921C1.58755 21.1681 1.16153 21.5273 0.998204 22.0296C0.834836 22.532 0.968538 23.0731 1.34669 23.4421L6.88257 28.8384C7.66222 29.5983 8.01784 30.6927 7.83389 31.7663L6.52698 39.386C6.43759 39.9065 6.64763 40.4231 7.07523 40.7337C7.50284 41.0446 8.05859 41.085 8.52614 40.8385L15.3689 37.2409C16.3325 36.7342 17.4836 36.7338 18.4475 37.2409L25.2903 40.8385C25.4936 40.9457 25.7136 40.9983 25.9327 40.9983C26.2171 40.9983 26.4999 40.9093 26.7412 40.7337C27.1688 40.4228 27.3789 39.9061 27.2895 39.3856ZM24.6064 32.002L25.9066 39.5841L19.0978 36.0043C18.4123 35.6439 17.6604 35.4636 16.9088 35.4636C16.1569 35.4636 15.4049 35.6439 14.7198 36.0043L7.91067 39.5837L9.21089 32.002C9.47275 30.4756 8.96683 28.9191 7.85811 27.838L2.34958 22.4683L9.96216 21.3619C11.495 21.1392 12.8189 20.1772 13.504 18.7888L16.9086 11.8906L20.3132 18.7888C20.9983 20.1776 22.3227 21.1392 23.8551 21.3619L31.4677 22.4683L25.9592 27.838C24.8504 28.9191 24.3441 30.4756 24.6064 32.002Z" fill="black"/>
<path d="M16.9091 6.17186C17.2947 6.17186 17.6072 5.85937 17.6072 5.4737V1.6967C17.6072 1.31102 17.2947 0.998535 16.9091 0.998535C16.5234 0.998535 16.2109 1.31102 16.2109 1.6967V5.4733C16.2105 5.85897 16.5234 6.17186 16.9091 6.17186Z" fill="black"/>
<path d="M5.5244 8.4512C5.65375 8.67508 5.88833 8.80048 6.13001 8.80048C6.24868 8.80048 6.36854 8.77042 6.4785 8.70673C6.81236 8.5141 6.92707 8.08689 6.73403 7.75264L4.96354 4.68668C4.7709 4.35283 4.34369 4.23811 4.00944 4.43115C3.67559 4.62379 3.56087 5.051 3.75391 5.38525L5.5244 8.4512Z" fill="black"/>
<path d="M27.3376 8.7066C27.4476 8.76989 27.5675 8.80035 27.6861 8.80035C27.9274 8.80035 28.1624 8.67495 28.2917 8.45068L30.0622 5.3831C30.2549 5.04924 30.1406 4.62204 29.8063 4.429C29.4721 4.23637 29.0453 4.35068 28.8522 4.68493L27.0817 7.7525C26.8891 8.08675 27.0038 8.51395 27.3376 8.7066Z" fill="black"/>
</g>
<defs>
<clipPath id="clip0_793_4793">
<rect width="33" height="41" fill="white" transform="translate(0.753906)"/>
</clipPath>
</defs>
</svg>
