<svg width="41" height="41" viewBox="0 0 41 41" fill="none" xmlns="http://www.w3.org/2000/svg">
<g clip-path="url(#clip0_793_4791)">
<path fill-rule="evenodd" clip-rule="evenodd" d="M33.9453 33.5371C30.4632 37.0193 25.8332 38.9371 20.9082 38.9371C15.9832 38.9371 11.3532 37.0193 7.87106 33.5371C4.38891 30.055 2.47106 25.425 2.47106 20.5C2.47106 15.575 4.38891 10.945 7.87106 7.46286C11.3539 3.98071 15.9832 2.06286 20.9082 2.06286C25.8332 2.06286 30.4632 3.98071 33.9453 7.46286C37.4275 10.945 39.3453 15.575 39.3453 20.5C39.3453 25.425 37.4275 30.055 33.9453 33.5371ZM35.0503 6.35786C31.2732 2.58 26.2503 0.5 20.9082 0.5C15.5661 0.5 10.5432 2.58 6.76606 6.35786C2.9882 10.135 0.908203 15.1579 0.908203 20.5C0.908203 25.8421 2.9882 30.865 6.76606 34.6421C10.5432 38.42 15.5661 40.5 20.9082 40.5C26.2503 40.5 31.2732 38.42 35.0503 34.6421C38.8275 30.865 40.9082 25.8421 40.9082 20.5C40.9082 15.1579 38.8282 10.135 35.0503 6.35786ZM14.5353 18.9714C15.9168 18.9714 17.0403 17.8479 17.0403 16.4664C17.0403 15.085 15.9168 13.9621 14.5353 13.9621C13.1539 13.9621 12.0303 15.0857 12.0303 16.4664C12.0303 17.8471 13.1539 18.9714 14.5353 18.9714ZM27.3418 18.9714C28.7232 18.9714 29.8468 17.8479 29.8468 16.4664C29.8468 15.085 28.7232 13.9621 27.3418 13.9621C25.9603 13.9621 24.8368 15.0857 24.8368 16.4664C24.8368 17.8471 25.9603 18.9714 27.3418 18.9714ZM29.9896 23.54C29.5789 23.4086 29.1389 23.6343 29.0075 24.045C28.9925 24.0929 27.3918 28.85 20.9389 28.85C18.2439 28.85 16.0703 28.0464 14.4796 26.4621C13.2846 25.2714 12.8725 24.0543 12.8696 24.045C12.7382 23.6343 12.2982 23.4079 11.8875 23.54C11.4768 23.6714 11.2503 24.1114 11.3818 24.5221C11.4018 24.5843 11.8839 26.0529 13.3139 27.5057C14.6196 28.8321 17.0018 30.4129 20.9389 30.4129C24.8761 30.4129 27.2582 28.8321 28.5639 27.5057C29.9939 26.0529 30.4761 24.5843 30.4961 24.5221C30.6275 24.1114 30.4011 23.6714 29.9896 23.54Z" fill="black"/>
</g>
<defs>
<clipPath id="clip0_793_4791">
<rect width="40" height="40" fill="white" transform="translate(0.908203 0.5)"/>
</clipPath>
</defs>
</svg>
