<svg width="23" height="18" viewBox="0 0 23 18" fill="none" xmlns="http://www.w3.org/2000/svg">
<g clip-path="url(#clip0_750_4798)">
<path d="M0 17.0946V12.6202C0 11.2613 0.240294 9.81954 0.720881 8.29492C1.21804 6.75373 1.93063 5.27054 2.85866 3.84535C3.80327 2.40359 4.93845 1.1524 6.2642 0.0917969L9.44602 2.67702C8.40199 4.1685 7.49053 5.72627 6.71165 7.35032C5.94934 8.9578 5.56818 10.6813 5.56818 12.5208V17.0946H0ZM12.7273 17.0946V12.6202C12.7273 11.2613 12.9676 9.81954 13.4482 8.29492C13.9453 6.75373 14.6579 5.27054 15.5859 3.84535C16.5305 2.40359 17.6657 1.1524 18.9915 0.0917969L22.1733 2.67702C21.1293 4.1685 20.2178 5.72627 19.4389 7.35032C18.6766 8.9578 18.2955 10.6813 18.2955 12.5208V17.0946H12.7273Z" fill="white"/>
</g>
<defs>
<clipPath id="clip0_750_4798">
<rect width="22.1733" height="17.0028" fill="white" transform="translate(0 0.0917969)"/>
</clipPath>
</defs>
</svg>
