<svg width="114" height="16" viewBox="0 0 114 16" fill="none" xmlns="http://www.w3.org/2000/svg">
<path d="M10 0H13.4615L15 8H11.5385L10 0Z" fill="black"/>
<path d="M7 8H11.1538L13 16H8.84615L7 8Z" fill="black"/>
<path d="M0 4H4.15385L6 12H1.84615L0 4Z" fill="black"/>
<path d="M30.6051 4.87931H32.5092C32.481 4.04715 32.3188 3.33487 32.0226 2.74249C31.7406 2.13599 31.3456 1.63529 30.8379 1.24036C30.3442 0.845436 29.7659 0.556295 29.103 0.372936C28.4401 0.189579 27.7208 0.0979004 26.945 0.0979004C26.2539 0.0979004 25.5769 0.189579 24.914 0.372936C24.2652 0.54219 23.6798 0.810175 23.158 1.17689C22.6502 1.5295 22.2412 1.9879 21.9309 2.55208C21.6206 3.10215 21.4654 3.75801 21.4654 4.51965C21.4654 5.21077 21.5994 5.78905 21.8674 6.2545C22.1495 6.70584 22.5162 7.07961 22.9676 7.3758C23.433 7.65789 23.9549 7.89062 24.5332 8.07397C25.1115 8.24323 25.6968 8.39838 26.2892 8.53942C26.8957 8.66636 27.4881 8.7933 28.0663 8.92024C28.6446 9.04718 29.1594 9.21644 29.6108 9.428C30.0762 9.62546 30.4429 9.8864 30.7109 10.2108C30.993 10.5352 31.1341 10.9583 31.1341 11.4802C31.1341 12.0303 31.0212 12.4816 30.7955 12.8342C30.5699 13.1868 30.2737 13.4689 29.907 13.6805C29.5403 13.878 29.1242 14.019 28.6587 14.1036C28.2074 14.1883 27.756 14.2306 27.3047 14.2306C26.7405 14.2306 26.1904 14.16 25.6545 14.019C25.1185 13.878 24.646 13.6593 24.237 13.3631C23.842 13.067 23.5176 12.6932 23.2638 12.2418C23.024 11.7764 22.9041 11.2263 22.9041 10.5916H21C21 11.5084 21.1622 12.3053 21.4866 12.9823C21.8251 13.6452 22.2765 14.1953 22.8406 14.6326C23.4189 15.0557 24.0818 15.373 24.8294 15.5846C25.591 15.7962 26.395 15.902 27.2412 15.902C27.9323 15.902 28.6235 15.8173 29.3146 15.6481C30.0198 15.4929 30.6545 15.239 31.2187 14.8864C31.7829 14.5197 32.2413 14.0543 32.5939 13.4901C32.9606 12.9118 33.1439 12.2207 33.1439 11.4167C33.1439 10.6692 33.0029 10.0486 32.7208 9.55494C32.4528 9.06129 32.0861 8.65226 31.6207 8.32785C31.1693 8.00345 30.6545 7.74957 30.0762 7.56621C29.4979 7.36875 28.9056 7.1995 28.2991 7.05845C27.7067 6.91741 27.1213 6.79047 26.5431 6.67763C25.9648 6.55069 25.4429 6.39554 24.9775 6.21218C24.5261 6.02883 24.1594 5.7961 23.8773 5.51401C23.6093 5.21782 23.4753 4.837 23.4753 4.37155C23.4753 3.8779 23.567 3.46887 23.7504 3.14446C23.9478 2.80596 24.2017 2.53797 24.512 2.34051C24.8364 2.14305 25.2031 2.002 25.6122 1.91738C26.0212 1.83275 26.4373 1.79044 26.8604 1.79044C27.9041 1.79044 28.7575 2.03726 29.4204 2.53092C30.0974 3.01047 30.4923 3.79327 30.6051 4.87931Z" fill="black"/>
<path d="M44.3451 15.5211C44.0348 15.7045 43.6046 15.7962 43.0545 15.7962C42.5891 15.7962 42.2153 15.6692 41.9332 15.4153C41.6652 15.1474 41.5312 14.7172 41.5312 14.1248C41.0376 14.7172 40.4593 15.1474 39.7964 15.4153C39.1476 15.6692 38.4424 15.7962 37.6807 15.7962C37.1871 15.7962 36.7146 15.7397 36.2632 15.6269C35.826 15.5141 35.4452 15.3378 35.1208 15.098C34.7964 14.8582 34.5354 14.5479 34.338 14.1671C34.1546 13.7722 34.0629 13.2997 34.0629 12.7496C34.0629 12.129 34.1687 11.6212 34.3803 11.2263C34.5919 10.8314 34.8669 10.514 35.2054 10.2743C35.558 10.0204 35.9529 9.82998 36.3902 9.70304C36.8415 9.5761 37.2999 9.47032 37.7654 9.38569C38.259 9.28696 38.7245 9.21643 39.1617 9.17412C39.613 9.1177 40.008 9.04718 40.3465 8.96255C40.685 8.86382 40.953 8.72983 41.1504 8.56058C41.3479 8.37722 41.4466 8.11629 41.4466 7.77778C41.4466 7.38285 41.369 7.0655 41.2139 6.82573C41.0729 6.58595 40.8824 6.4026 40.6427 6.27566C40.417 6.14872 40.1561 6.06409 39.8599 6.02177C39.5778 5.97946 39.2957 5.9583 39.0136 5.9583C38.252 5.9583 37.6173 6.1064 37.1095 6.40259C36.6017 6.68468 36.3267 7.22771 36.2844 8.03166H34.4861C34.5143 7.35465 34.6553 6.78342 34.9092 6.31797C35.1631 5.85252 35.5016 5.47875 35.9247 5.19666C36.3479 4.90047 36.8274 4.6889 37.3634 4.56196C37.9135 4.43502 38.4988 4.37155 39.1194 4.37155C39.613 4.37155 40.0996 4.40681 40.5792 4.47734C41.0729 4.54786 41.5171 4.69595 41.9121 4.92163C42.307 5.13319 42.6243 5.43644 42.8641 5.83136C43.1039 6.22629 43.2238 6.7411 43.2238 7.3758V13.0035C43.2238 13.4266 43.2449 13.7369 43.2873 13.9344C43.3437 14.1318 43.5129 14.2306 43.795 14.2306C43.9502 14.2306 44.1335 14.1953 44.3451 14.1248V15.5211ZM41.4255 9.91461C41.1998 10.0839 40.9036 10.2108 40.5369 10.2954C40.1702 10.3659 39.7823 10.4294 39.3733 10.4858C38.9783 10.5282 38.5764 10.5846 38.1673 10.6551C37.7583 10.7115 37.3916 10.8102 37.0672 10.9513C36.7428 11.0923 36.4748 11.2968 36.2632 11.5648C36.0658 11.8187 35.967 12.1713 35.967 12.6227C35.967 12.9189 36.0235 13.1727 36.1363 13.3843C36.2632 13.5818 36.4184 13.744 36.6017 13.8709C36.7992 13.9978 37.0249 14.0895 37.2788 14.1459C37.5326 14.2024 37.8006 14.2306 38.0827 14.2306C38.6751 14.2306 39.1829 14.153 39.606 13.9978C40.0291 13.8286 40.3747 13.6241 40.6427 13.3843C40.9107 13.1304 41.1081 12.8624 41.2351 12.5804C41.362 12.2842 41.4255 12.0091 41.4255 11.7552V9.91461Z" fill="black"/>
<path d="M45.3206 4.62543V15.5634H47.1189V10.6974C47.1189 9.99218 47.1895 9.37158 47.3305 8.83562C47.4715 8.28554 47.6972 7.82009 48.0075 7.43927C48.3178 7.05845 48.6236 6.59296 49.1314 6.39549C49.3807 6.21914 49.9118 6.21218 50.6311 6.21218V4.62543C49.484 4.63244 48.8941 4.65355 48.4261 4.98505C47.7914 5.40818 47.4927 6.04293 47.0555 6.93151H47.0131V4.62543H45.3206Z" fill="black"/>
<path d="M54.2912 4.62543V1.34614H52.4929V4.62543H50.6311V6.21218H52.4929V13.1727C52.4929 13.6805 52.5423 14.0895 52.641 14.3998C52.7397 14.7101 52.8878 14.9499 53.0853 15.1192C53.2968 15.2884 53.5648 15.4083 53.8892 15.4788C54.2277 15.5352 54.6297 15.5634 55.0952 15.5634H56.4704V13.9767H55.6452C55.3632 13.9767 55.1304 13.9696 54.9471 13.9555C54.7778 13.9273 54.6438 13.878 54.5451 13.8074C54.4464 13.7369 54.3758 13.6382 54.3335 13.5112C54.3053 13.3843 54.2912 13.2151 54.2912 13.0035V6.21218H56.4704V4.62543H54.2912Z" fill="black"/>
<path d="M59.1452 10.105C59.1452 9.44211 59.2298 8.85677 59.3991 8.34901C59.5824 7.82715 59.8293 7.38991 60.1396 7.0373C60.4499 6.68468 60.8095 6.4167 61.2185 6.23334C61.6417 6.04998 62.086 5.9583 62.5514 5.9583C63.0169 5.9583 63.4541 6.04998 63.8631 6.23334C64.2863 6.4167 64.653 6.68468 64.9633 7.0373C65.2736 7.38991 65.5134 7.82715 65.6826 8.34901C65.866 8.85677 65.9576 9.44211 65.9576 10.105C65.9576 10.7679 65.866 11.3603 65.6826 11.8822C65.5134 12.3899 65.2736 12.8201 64.9633 13.1727C64.653 13.5112 64.2863 13.7722 63.8631 13.9555C63.4541 14.1389 63.0169 14.2306 62.5514 14.2306C62.086 14.2306 61.6417 14.1389 61.2185 13.9555C60.8095 13.7722 60.4499 13.5112 60.1396 13.1727C59.8293 12.8201 59.5824 12.3899 59.3991 11.8822C59.2298 11.3603 59.1452 10.7679 59.1452 10.105ZM57.2411 10.105C57.2411 10.909 57.3539 11.6565 57.5796 12.3476C57.8053 13.0387 58.1438 13.6452 58.5951 14.1671C59.0465 14.6749 59.6036 15.0768 60.2665 15.373C60.9294 15.6551 61.691 15.7962 62.5514 15.7962C63.4259 15.7962 64.1875 15.6551 64.8363 15.373C65.4992 15.0768 66.0564 14.6749 66.5077 14.1671C66.9591 13.6452 67.2976 13.0387 67.5232 12.3476C67.7489 11.6565 67.8617 10.909 67.8617 10.105C67.8617 9.30106 67.7489 8.55353 67.5232 7.86241C67.2976 7.15718 66.9591 6.55069 66.5077 6.04293C66.0564 5.52107 65.4992 5.11204 64.8363 4.81584C64.1875 4.51965 63.4259 4.37155 62.5514 4.37155C61.691 4.37155 60.9294 4.51965 60.2665 4.81584C59.6036 5.11204 59.0465 5.52107 58.5951 6.04293C58.1438 6.55069 57.8053 7.15718 57.5796 7.86241C57.3539 8.55353 57.2411 9.30106 57.2411 10.105Z" fill="black"/>
<path d="M69.2839 4.62543V15.5634H71.0822V10.6974C71.0822 9.99218 71.1527 9.37158 71.2938 8.83562C71.4348 8.28554 71.6605 7.82009 71.9708 7.43927C72.2811 7.05845 72.6901 6.76931 73.1979 6.57185C73.7056 6.37439 74.3192 6.27566 75.0385 6.27566V4.37155C74.0653 4.34334 73.2613 4.54081 72.6266 4.96394C71.9919 5.38707 71.456 6.04293 71.0187 6.93151H70.9764V4.62543H69.2839Z" fill="black"/>
<path d="M77.6621 2.65786V0.457564H75.8638V2.65786H77.6621ZM75.8638 4.62543V15.5634H77.6621V4.62543H75.8638Z" fill="black"/>
<path d="M89.5031 15.5211C89.1928 15.7045 88.7626 15.7962 88.2125 15.7962C87.7471 15.7962 87.3733 15.6692 87.0912 15.4153C86.8232 15.1474 86.6892 14.7172 86.6892 14.1248C86.1956 14.7172 85.6173 15.1474 84.9544 15.4153C84.3056 15.6692 83.6003 15.7962 82.8387 15.7962C82.345 15.7962 81.8725 15.7397 81.4212 15.6269C80.984 15.5141 80.6031 15.3378 80.2787 15.098C79.9543 14.8582 79.6934 14.5479 79.4959 14.1671C79.3126 13.7722 79.2209 13.2997 79.2209 12.7496C79.2209 12.129 79.3267 11.6212 79.5383 11.2263C79.7498 10.8314 80.0249 10.514 80.3634 10.2743C80.716 10.0204 81.1109 9.82998 81.5481 9.70304C81.9995 9.5761 82.4579 9.47032 82.9233 9.38569C83.417 9.28696 83.8824 9.21643 84.3197 9.17412C84.771 9.1177 85.1659 9.04718 85.5044 8.96255C85.8429 8.86382 86.1109 8.72983 86.3084 8.56058C86.5059 8.37722 86.6046 8.11629 86.6046 7.77778C86.6046 7.38285 86.527 7.0655 86.3719 6.82573C86.2308 6.58595 86.0404 6.4026 85.8006 6.27566C85.575 6.14872 85.314 6.06409 85.0178 6.02177C84.7358 5.97946 84.4537 5.9583 84.1716 5.9583C83.4099 5.9583 82.7752 6.1064 82.2675 6.40259C81.7597 6.68468 81.4847 7.22771 81.4424 8.03166H79.644C79.6722 7.35465 79.8133 6.78342 80.0672 6.31797C80.3211 5.85252 80.6596 5.47875 81.0827 5.19666C81.5058 4.90047 81.9854 4.6889 82.5214 4.56196C83.0714 4.43502 83.6568 4.37155 84.2774 4.37155C84.771 4.37155 85.2576 4.40681 85.7372 4.47734C86.2308 4.54786 86.6751 4.69595 87.07 4.92163C87.465 5.13319 87.7823 5.43644 88.0221 5.83136C88.2619 6.22629 88.3818 6.7411 88.3818 7.3758V13.0035C88.3818 13.4266 88.4029 13.7369 88.4452 13.9344C88.5016 14.1318 88.6709 14.2306 88.953 14.2306C89.1081 14.2306 89.2915 14.1953 89.5031 14.1248V15.5211ZM86.5834 9.91461C86.3578 10.0839 86.0616 10.2108 85.6949 10.2954C85.3281 10.3659 84.9403 10.4294 84.5312 10.4858C84.1363 10.5282 83.7343 10.5846 83.3253 10.6551C82.9163 10.7115 82.5496 10.8102 82.2252 10.9513C81.9008 11.0923 81.6328 11.2968 81.4212 11.5648C81.2237 11.8187 81.125 12.1713 81.125 12.6227C81.125 12.9189 81.1814 13.1727 81.2943 13.3843C81.4212 13.5818 81.5764 13.744 81.7597 13.8709C81.9572 13.9978 82.1828 14.0895 82.4367 14.1459C82.6906 14.2024 82.9586 14.2306 83.2407 14.2306C83.8331 14.2306 84.3408 14.153 84.764 13.9978C85.1871 13.8286 85.5327 13.6241 85.8006 13.3843C86.0686 13.1304 86.2661 12.8624 86.393 12.5804C86.52 12.2842 86.5834 12.0091 86.5834 11.7552V9.91461Z" fill="black"/>
<path d="M90.6478 0.457564V15.5634H92.4462V0.457564H90.6478Z" fill="black"/>
<path d="M96.5015 2.65786V0.457564H94.7031V2.65786H96.5015ZM94.7031 4.62543V15.5634H96.5015V4.62543H94.7031Z" fill="black"/>
<path d="M99.7528 12.1149H97.9545C97.9827 12.7919 98.1237 13.3702 98.3776 13.8498C98.6315 14.3152 98.97 14.696 99.3932 14.9922C99.8163 15.2743 100.303 15.4788 100.853 15.6058C101.403 15.7327 101.981 15.7962 102.588 15.7962C103.138 15.7962 103.688 15.7397 104.238 15.6269C104.802 15.5282 105.303 15.3448 105.74 15.0768C106.192 14.8089 106.551 14.4562 106.819 14.019C107.101 13.5818 107.242 13.0317 107.242 12.3688C107.242 11.8469 107.137 11.4097 106.925 11.0571C106.727 10.7045 106.459 10.4153 106.121 10.1896C105.797 9.94987 105.416 9.75946 104.979 9.61841C104.555 9.47737 104.118 9.35748 103.667 9.25875C103.244 9.16002 102.821 9.06834 102.397 8.98371C101.974 8.88498 101.593 8.77214 101.255 8.6452C100.916 8.50416 100.634 8.33491 100.409 8.13744C100.197 7.92588 100.091 7.66495 100.091 7.35465C100.091 7.07256 100.162 6.84689 100.303 6.67763C100.444 6.49427 100.627 6.35323 100.853 6.2545C101.079 6.14166 101.325 6.06409 101.593 6.02177C101.876 5.97946 102.151 5.9583 102.419 5.9583C102.715 5.9583 103.004 5.99357 103.286 6.06409C103.582 6.12051 103.85 6.21924 104.09 6.36028C104.33 6.50133 104.527 6.69174 104.682 6.93151C104.837 7.15718 104.929 7.44633 104.957 7.79894H106.756C106.713 7.13603 106.572 6.58595 106.333 6.14872C106.093 5.69737 105.768 5.34476 105.359 5.09088C104.964 4.8229 104.506 4.63954 103.984 4.54081C103.462 4.42797 102.891 4.37155 102.27 4.37155C101.791 4.37155 101.304 4.43502 100.811 4.56196C100.331 4.6748 99.8939 4.85816 99.4989 5.11204C99.1181 5.35181 98.8008 5.66916 98.5469 6.06409C98.3071 6.45901 98.1872 6.93151 98.1872 7.48159C98.1872 8.18681 98.3635 8.73688 98.7161 9.13181C99.0688 9.52673 99.506 9.83703 100.028 10.0627C100.564 10.2743 101.142 10.4435 101.763 10.5705C102.383 10.6833 102.955 10.8173 103.476 10.9724C104.012 11.1135 104.457 11.3039 104.809 11.5437C105.162 11.7834 105.338 12.1361 105.338 12.6015C105.338 12.94 105.254 13.2221 105.084 13.4478C104.915 13.6593 104.696 13.8215 104.428 13.9344C104.175 14.0472 103.892 14.1248 103.582 14.1671C103.272 14.2094 102.976 14.2306 102.694 14.2306C102.327 14.2306 101.967 14.1953 101.615 14.1248C101.276 14.0543 100.966 13.9414 100.684 13.7863C100.416 13.617 100.197 13.3984 100.028 13.1304C99.8586 12.8483 99.7669 12.5098 99.7528 12.1149Z" fill="black"/>
<path d="M111.093 4.62543V1.34614H109.294V4.62543H107.433V6.21218H109.294V13.1727C109.294 13.6805 109.344 14.0895 109.443 14.3998C109.541 14.7101 109.689 14.9499 109.887 15.1192C110.098 15.2884 110.366 15.4083 110.691 15.4788C111.029 15.5352 111.431 15.5634 111.897 15.5634H113.272V13.9767H112.447C112.165 13.9767 111.932 13.9696 111.749 13.9555C111.579 13.9273 111.445 13.878 111.347 13.8074C111.248 13.7369 111.177 13.6382 111.135 13.5112C111.107 13.3843 111.093 13.2151 111.093 13.0035V6.21218H113.272V4.62543H111.093Z" fill="black"/>
</svg>
