<svg width="50" height="50" viewBox="0 0 50 50" fill="none" xmlns="http://www.w3.org/2000/svg">
<g clip-path="url(#clip0_2263_24568)">
<rect width="49.1523" height="49.1523" rx="24.5762" fill="#5A3FF5"/>
<path d="M5.46445 15.1604H9.31799L5.14987 34.6641H-1.57417L-4.16941 18.8567H-4.71992L-7.27584 34.6641H-13.9999L-18.168 15.1604H-14.3145L-10.9328 30.9678H-10.5396L-7.94431 15.1604H-0.905696L1.68955 30.9678H2.08277L5.46445 15.1604ZM33.3246 15.1604H37.1782L33.01 34.6641H26.286L23.6908 18.8567H23.1402L20.5843 34.6641H13.8603L9.69216 15.1604H13.5457L16.9274 30.9678H17.3206L19.9159 15.1604H26.9545L29.5497 30.9678H29.9429L33.3246 15.1604ZM61.1848 15.1604H65.0383L60.8702 34.6641H54.1462L51.5509 18.8567H51.0004L48.4445 34.6641H41.7204L37.5523 15.1604H41.4059L44.7876 30.9678H45.1808L47.776 15.1604H54.8146L57.4099 30.9678H57.8031L61.1848 15.1604Z" fill="white"/>
</g>
<defs>
<clipPath id="clip0_2263_24568">
<rect width="49.1523" height="49.1523" rx="24.5762" fill="white"/>
</clipPath>
</defs>
</svg>
